<svg width="48" height="46" viewBox="0 0 48 46" fill="none" xmlns="http://www.w3.org/2000/svg">
<path d="M29.2969 36.9219L27.3438 39.2852L22.9102 35.9062C21.8424 36.4922 20.6836 36.9609 19.4336 37.3125C18.1966 37.6641 16.8424 37.8398 15.3711 37.8398C10.918 37.8398 7.42839 36.3815 4.90234 33.4648C2.67578 30.6263 1.5625 27.0716 1.5625 22.8008C1.5625 18.9206 2.52604 15.6003 4.45312 12.8398C6.92708 9.29818 10.5859 7.52734 15.4297 7.52734C20.4948 7.52734 24.2448 9.15495 26.6797 12.4102C28.5807 14.9492 29.5312 18.1979 29.5312 22.1562C29.5312 24.0052 29.3034 25.7826 28.8477 27.4883C28.1576 30.0924 26.9922 32.2148 25.3516 33.8555L29.2969 36.9219ZM15.8398 34.3633C16.6471 34.3633 17.4023 34.3112 18.1055 34.207C18.8086 34.0898 19.4206 33.8685 19.9414 33.543L16.7969 31.082L18.75 28.6797L22.5 31.5898C23.6849 30.2357 24.4857 28.7188 24.9023 27.0391C25.332 25.3594 25.5469 23.7513 25.5469 22.2148C25.5469 18.8424 24.6615 16.1276 22.8906 14.0703C21.1328 12.013 18.724 10.9844 15.6641 10.9844C12.5651 10.9844 10.1107 11.974 8.30078 13.9531C6.49089 15.9193 5.58594 18.9531 5.58594 23.0547C5.58594 26.5052 6.45182 29.2526 8.18359 31.2969C9.92839 33.3411 12.4805 34.3633 15.8398 34.3633ZM39.3508 32.7422H43.4328V37H39.3508V32.7422Z" fill="#8C98C8"/>
</svg>
