<svg width="401" height="78" viewBox="0 0 401 78" fill="none" xmlns="http://www.w3.org/2000/svg">
<path d="M132.076 56.4662C132.206 55.4598 132.238 54.54 132.238 52.7436V37.1177C132.238 35.2456 132.216 34.5097 132.076 33.5791H136.372C136.242 34.5855 136.21 35.1915 136.21 37.1177V41.1324C140.301 42.5283 143.915 44.1623 148.212 46.6729L146.047 50.4712C143.699 48.8588 140.247 46.9867 137.206 45.6665C136.708 45.4609 136.599 45.4068 136.199 45.1904V52.7869C136.199 54.475 136.253 55.449 136.361 56.4553H132.065L132.076 56.4662ZM143.71 35.2239C144.738 36.49 145.398 37.5181 146.058 39.0006L143.764 40.1368C143.125 38.7084 142.335 37.3882 141.415 36.2303L143.71 35.2239ZM146.772 33.7955C147.909 35.1698 148.353 35.884 149.175 37.4423L146.881 38.5785C146.221 37.2367 145.485 35.9923 144.554 34.8344L146.772 33.8063V33.7955Z" fill="#64372C"/>
<path d="M165.408 33.7951C165.279 33.979 165.008 34.5093 164.64 35.3533C164.402 35.8836 164.294 36.1217 164.012 36.6952L170.874 36.6194C171.74 36.5978 172.27 36.5112 172.779 36.3273L174.705 38.2318C174.445 38.6538 174.337 38.8919 174.023 39.9416C172.757 44.0537 170.906 47.6247 168.612 50.2326C166.242 52.9488 163.233 55.0914 159.034 57.0176C158.168 55.4052 157.714 54.875 156.318 53.6089C163.439 50.8386 167.562 46.6941 169.727 40.0498L162.238 40.1255C160.625 42.6902 158.569 44.9518 156.145 46.8564C155.041 45.5146 154.565 45.1142 153.006 44.1619C156.09 42.0301 158.179 39.6494 159.922 36.3273C160.69 34.8988 161.058 33.9033 161.188 32.9727L165.441 33.7951H165.408Z" fill="#64372C"/>
<path d="M190.884 33.7623C190.625 34.2059 190.538 34.3466 190.203 35.1041C189.965 35.5802 189.889 35.7642 189.618 36.2404L196.588 36.1862C197.508 36.1538 197.962 36.1105 198.568 35.84L200.625 37.8744C200.257 38.2964 200.224 38.3505 199.78 39.6707C198.038 44.7675 196.003 48.3278 193.211 51.2279C190.884 53.6302 188.017 55.578 184.261 57.2986C183.363 55.7187 182.919 55.1668 181.653 53.9765C183.839 53.1108 185.138 52.4723 186.696 51.52C188.46 50.3838 189.542 49.5181 190.863 48.0897C189.066 46.5855 187.67 45.6332 185.69 44.5511L188.092 41.7268C190.419 43.0145 191.653 43.8369 193.157 44.9948C194.293 43.2526 195.084 41.5644 195.744 39.5084L188.017 39.5841C186.404 42.2245 184.564 44.3888 181.924 46.6613C180.841 45.4493 180.311 45.0489 178.731 44.1507C181.74 41.8025 183.688 39.5841 185.333 36.5758C186.101 35.1799 186.599 33.9679 186.859 32.8857L190.895 33.7514L190.884 33.7623Z" fill="#64372C"/>
<path d="M204.845 42.7881C206.036 42.9504 206.977 43.0045 209.672 43.0045H223.027C225.689 43.0045 226.641 42.972 227.853 42.8205V47.1491C226.793 47.0733 225.061 47.0192 222.994 47.0192H209.672C207.378 47.0192 205.873 47.0733 204.845 47.1815V42.7989V42.7881Z" fill="#64372C"/>
<path d="M237.55 40.6233C238.524 42.6252 239.26 43.7074 240.797 45.3197C240.115 46.3802 239.715 47.2676 239.401 48.512C238.448 47.2676 237.972 46.4235 237.345 44.8652C237.42 45.7851 237.453 46.8131 237.453 48.274V54.1066C237.453 55.4485 237.507 56.5631 237.615 57.4288H234.055C234.163 56.5631 234.217 55.4268 234.217 54.1066V49.8322C234.253 48.2307 234.289 47.08 234.325 46.3802C233.265 49.2803 232.799 50.2867 231.663 51.8991C231.262 50.4707 230.797 49.2587 230.18 48.1549C231.187 46.8564 231.944 45.5903 232.604 44.1402C233.265 42.6144 233.611 41.6838 233.871 40.6341H232.842C231.998 40.6341 231.446 40.6558 230.916 40.764V37.4094C231.392 37.5176 231.966 37.5392 232.897 37.5392H234.195V35.5914C234.195 34.2712 234.141 33.5894 234.033 32.8428H237.593C237.485 33.5786 237.464 34.3686 237.464 35.5914V37.5392H238.524C239.13 37.5392 239.715 37.4851 240.158 37.4094V40.7315C239.52 40.6558 239.098 40.6233 238.546 40.6233H237.572H237.55ZM246.305 34.4443C244.541 40.2229 243.611 42.4413 241.847 44.9735C241.609 44.7354 241.392 44.5514 241.295 44.4432C240.245 43.4152 240.104 43.2853 239.13 42.5928C240.321 41.0886 241.003 39.7468 241.847 37.2903C242.344 35.7862 242.615 34.7257 242.799 33.3297L246.305 34.4443ZM248.838 41.9651C248.73 42.3186 248.571 42.8561 248.362 43.5775C247.463 46.6399 246.36 49.724 245.191 52.4726C246.987 52.2887 248.037 52.1047 249.996 51.7368C249.52 50.6005 249.152 49.8106 247.994 47.484L250.981 46.1638C253.015 50.0703 253.697 51.5961 255.039 55.3186L251.792 57.0068C251.424 55.8164 251.37 55.6108 251.078 54.7126C246.825 55.6108 245.083 55.903 241.468 56.325C240.461 56.4549 240.364 56.4549 239.888 56.5631L239.282 52.873C239.487 52.8947 239.596 52.8947 239.866 52.8947C240.288 52.8947 240.873 52.873 241.533 52.8189C242.355 50.817 242.799 49.6266 243.405 47.6788C244.357 44.7246 244.963 42.4305 245.169 41.1103L248.838 41.976V41.9651ZM250.786 33.2323C251.154 34.6824 251.652 36.1108 252.312 37.5284C253.178 39.3247 254.022 40.5908 255.299 41.911C254.401 42.7767 253.773 43.4909 252.766 44.8652C250.71 42.3331 249.595 40.1904 248.199 35.9701C247.968 35.2848 247.792 34.7762 247.669 34.4443L250.786 33.2323Z" fill="#64372C"/>
<path d="M261.208 40.4178C259.357 40.4178 258.643 40.4502 257.701 40.5801V37.0199C258.676 37.1281 259.628 37.1822 261.154 37.1822H263.048V35.678C263.048 34.2496 263.026 33.5895 262.885 32.832H266.846C266.738 33.5679 266.717 34.2821 266.717 35.862V37.1822H271.998V36.046C271.998 34.4119 271.976 33.6977 271.835 32.8537H275.71C275.58 33.7735 275.548 34.4661 275.548 36.046V37.1822H277.236C278.74 37.1822 279.66 37.1281 280.688 37.0199V40.5801C279.66 40.4719 278.762 40.4178 277.236 40.4178H275.548V45.6661H277.896C279.422 45.6661 280.32 45.612 281.348 45.5038V49.064C280.244 48.9558 279.4 48.9017 277.918 48.9017H275.548V53.7604C275.548 55.3728 275.602 56.3251 275.732 57.299H271.803C271.933 56.3467 271.987 55.3945 271.987 53.7388V48.9125H266.316C266.002 50.579 265.494 51.8451 264.628 53.1653C263.546 54.7993 262.333 55.9355 259.953 57.4938C259 56.0113 258.556 55.4919 257.442 54.5396C259.108 53.5873 260.028 52.8515 260.981 51.791C261.825 50.8387 262.247 50.0704 262.539 48.9125H260.429C258.686 48.9125 257.95 48.9341 256.998 49.0748V45.5146C257.95 45.6228 258.87 45.6769 260.375 45.6769H262.961C263.015 44.5732 263.037 43.8265 263.037 42.7768V40.4286H261.186L261.208 40.4178ZM266.727 43.0257C266.727 44.0321 266.706 44.7138 266.652 45.6661H272.009V40.4178H266.727V43.0257Z" fill="#64372C"/>
<path d="M295.969 33.7951C295.839 33.979 295.569 34.5093 295.201 35.3533C294.963 35.8836 294.855 36.1217 294.573 36.6952L301.435 36.6194C302.3 36.5978 302.831 36.5112 303.339 36.3273L305.266 38.2318C305.006 38.6538 304.898 38.8919 304.584 39.9416C303.318 44.0537 301.467 47.6247 299.173 50.2326C296.803 52.9488 293.794 55.0914 289.595 57.0176C288.729 55.4052 288.275 54.875 286.879 53.6089C294 50.8386 298.123 46.6941 300.287 40.0498L292.798 40.1255C291.186 42.6902 289.13 44.9518 286.705 46.8564C285.602 45.5146 285.125 45.1142 283.567 44.1619C286.651 42.0301 288.74 39.6494 290.482 36.3273C291.251 34.8988 291.619 33.9033 291.749 32.9727L296.002 33.7951H295.969Z" fill="#64372C"/>
<path d="M315.688 34.0547C315.579 34.9204 315.525 35.9051 315.525 37.6474V42.8199C315.525 44.454 315.579 45.7525 315.655 46.4667H311.326C311.434 45.4928 311.489 44.5189 311.489 42.7767V37.6582C311.489 35.6238 311.467 35.0178 311.359 34.0655H315.688V34.0547ZM327.776 34.0763C327.668 35.0286 327.646 35.5805 327.646 37.5824V40.3852C327.646 44.7678 327.538 46.3802 327.116 47.9817C326.38 50.8277 324.605 52.9703 321.683 54.626C320.2 55.4701 318.804 56.0219 316.38 56.7145C315.752 55.0264 315.406 54.442 314.107 52.9379C316.434 52.4617 317.798 52.0181 319.248 51.2497C321.672 49.962 322.863 48.4254 323.285 45.9689C323.469 44.9085 323.577 42.7226 323.577 40.1363V37.6257C323.577 35.6238 323.555 35.1476 323.415 34.0655H327.765L327.776 34.0763Z" fill="#64372C"/>
<path d="M331.477 49.4426C332.722 49.6049 333.22 49.6266 335.622 49.6266H349.507C351.325 49.6266 352.592 49.5725 353.782 49.4426V53.6413C352.624 53.5331 351.65 53.5114 349.583 53.5114H335.568C333.826 53.5114 332.484 53.5655 331.477 53.6413V49.4426ZM334.14 36.457C335.482 36.6194 335.958 36.641 338.014 36.641H347.116C349.258 36.641 349.94 36.6194 351.131 36.457V40.6016C350.048 40.4934 349.28 40.4717 347.202 40.4717H337.971C336.153 40.4717 335.092 40.4934 334.14 40.6016V36.457Z" fill="#64372C"/>
<path d="M360.427 39.5733C361.585 41.7376 362.115 43.0578 363.035 46.0337L359.496 47.1158C358.782 44.2373 358.284 42.863 357.115 40.5148L360.416 39.5625L360.427 39.5733ZM375.708 39.8872C375.546 40.3417 375.524 40.4174 375.308 41.3697C374.539 44.9299 373.403 47.83 371.855 50.1025C369.983 52.797 367.635 54.6691 363.468 56.7792C362.646 55.3833 362.278 54.9071 360.957 53.641C362.96 52.8727 364.096 52.2667 365.6 51.2171C368.663 48.9987 370.405 46.2826 371.488 42.0622C371.801 40.7745 371.942 39.898 371.964 39.0323L375.708 39.898V39.8872ZM366.152 38.4912C367.548 41.1533 368.046 42.3436 368.717 44.7459L365.265 45.8064C364.767 43.7179 363.923 41.4563 362.895 39.3894L366.163 38.4912H366.152Z" fill="#64372C"/>
<path d="M391.704 33.7951C391.574 33.979 391.303 34.5093 390.935 35.3533C390.697 35.8836 390.589 36.1217 390.307 36.6952L397.169 36.6194C398.035 36.5978 398.565 36.5112 399.063 36.3273L400.989 38.2318C400.729 38.6538 400.621 38.8919 400.307 39.9416C399.041 44.0537 397.19 47.6247 394.896 50.2326C392.526 52.9488 389.517 55.0914 385.318 57.0176C384.453 55.4052 383.998 54.875 382.602 53.6089C389.723 50.8386 393.846 46.6941 396.011 40.0498L388.522 40.1255C386.909 42.6902 384.853 44.9518 382.429 46.8564C381.325 45.5146 380.849 45.1142 379.29 44.1619C382.375 42.0301 384.463 39.6494 386.206 36.3273C386.974 34.8988 387.342 33.9033 387.472 32.9727L391.725 33.7951H391.704Z" fill="#64372C"/>
<path d="M136.957 23.1799C137.433 23.9482 138.125 24.5759 139.045 25.0845C139.954 25.5931 140.961 25.8961 142.195 26.0476C141.978 26.383 141.859 26.6319 141.783 26.9565C140.214 26.6103 139.154 26.1882 138.169 25.5173C137.314 24.933 136.664 24.2079 136.21 23.3855C135.82 24.2945 135.128 25.0953 134.197 25.6904C133.309 26.264 132.465 26.567 130.896 26.9349C130.799 26.6103 130.701 26.4047 130.485 26.08C132.022 25.8419 133.017 25.4957 133.926 24.8789C134.651 24.3811 135.084 23.8941 135.409 23.1907H132.141C131.61 23.1907 131.167 23.2124 130.777 23.2665V22.3791C131.167 22.4332 131.545 22.4549 132.108 22.4549H135.636C135.69 22.1519 135.712 21.9463 135.712 21.7082C135.712 21.5892 135.701 21.5351 135.69 21.3944H136.654C136.632 21.5351 136.632 21.5675 136.61 21.7299C136.589 22.0004 136.556 22.1302 136.491 22.4657H140.571C141.145 22.4657 141.545 22.4441 141.902 22.39V23.2773C141.502 23.2232 141.091 23.2015 140.528 23.2015H136.957V23.1799ZM134.359 16.4815C134.013 15.9404 133.764 15.605 133.385 15.2154L134.132 14.8691C134.651 15.5076 134.954 15.9296 135.268 16.4815H137.27C137.671 16.027 138.017 15.5076 138.299 14.9232L139.121 15.2262C138.818 15.6916 138.558 16.0378 138.18 16.4815H140.182C140.755 16.4815 141.145 16.4599 141.513 16.4058V17.2823C141.156 17.2282 140.723 17.2065 140.182 17.2065H136.675V18.4077H139.749C140.279 18.4077 140.539 18.3969 140.896 18.3428V19.1977C140.56 19.1436 140.268 19.1327 139.749 19.1327H136.675V20.4205H140.744C141.318 20.4205 141.708 20.3988 142.076 20.3447V21.2213C141.708 21.1671 141.286 21.1563 140.744 21.1563H131.935C131.405 21.1563 130.972 21.178 130.604 21.2321V20.3339C130.961 20.388 131.361 20.4097 131.935 20.4097H135.853V19.1219H132.92C132.4 19.1219 132.108 19.1327 131.773 19.1868V18.332C132.119 18.3861 132.39 18.3969 132.92 18.3969H135.853V17.1957H132.498C131.935 17.1957 131.556 17.2174 131.167 17.2715V16.3949C131.567 16.4491 131.924 16.4707 132.498 16.4707H134.381L134.359 16.4815Z" fill="#64372C"/>
<path d="M146.058 22.8115C145.993 22.8548 145.903 22.9161 145.788 22.9954C145.463 23.2227 145.149 23.4067 144.24 23.8936C144.078 23.5581 143.948 23.3634 143.731 23.1469C144.987 22.6275 145.939 22.0648 146.967 21.264C148.05 20.4091 148.688 19.7274 149.272 18.8076H150.127C150.755 19.7707 151.502 20.5282 152.671 21.4047C153.612 22.1081 154.391 22.5518 155.712 23.0928C155.495 23.3417 155.365 23.5581 155.214 23.9044C154.37 23.4608 153.894 23.1794 153.309 22.8007V25.809C153.309 26.231 153.331 26.6206 153.385 26.9993H152.476V26.3284H146.881V26.9993H145.961C146.015 26.6098 146.037 26.2094 146.037 25.7982V22.8007L146.058 22.8115ZM149.099 15.6261C149.099 15.334 149.078 15.0959 149.002 14.8037H150.041C149.976 15.1067 149.965 15.3231 149.965 15.6261V16.0373H153.926C154.446 16.0373 154.835 16.0265 155.257 15.9832C155.214 16.2646 155.203 16.5243 155.203 16.8922V17.7471C155.203 18.1367 155.214 18.3856 155.257 18.6669H154.391V16.8165H145.041V18.6669H144.164C144.208 18.3639 144.218 18.1367 144.218 17.7471V16.8922C144.218 16.5351 144.208 16.2646 144.164 15.9832C144.576 16.0265 144.976 16.0373 145.506 16.0373H149.099V15.6261ZM148.331 17.8229C147.692 18.6128 147.346 18.9807 146.708 19.511C146.134 20.0088 145.766 20.2685 145.041 20.6689C144.846 20.3767 144.716 20.2577 144.402 19.9979C145.073 19.7058 145.431 19.4893 145.972 19.0781C146.61 18.5803 146.967 18.2124 147.606 17.4116L148.331 17.812V17.8229ZM152.53 22.2488C151.199 21.2532 150.647 20.7121 149.749 19.5218C149.153 20.2901 148.785 20.6797 148.071 21.3181C147.606 21.7293 147.563 21.7618 146.87 22.2488H152.53ZM146.902 25.5709H152.498V23.0279H146.902V25.5709ZM151.632 17.4008C152.746 18.6669 153.472 19.1972 155.073 19.9222C154.835 20.1927 154.749 20.3226 154.565 20.658C152.909 19.7923 152.249 19.2837 150.95 17.877L151.632 17.4116V17.4008Z" fill="#64372C"/>
<path d="M159.857 19.6621C160.668 20.2789 161.134 20.6901 161.664 21.2853C162.162 20.1707 162.422 19.3158 162.757 17.606H160.257C159.619 19.1968 158.796 20.4845 157.66 21.7398C157.465 21.4043 157.368 21.2853 157.075 21.0364C158.266 19.8352 159.153 18.3743 159.792 16.5239C159.987 15.9612 160.16 15.3011 160.214 14.8574L161.177 15.0414C161.058 15.3227 161.015 15.4418 160.907 15.7989C160.798 16.1452 160.733 16.3399 160.549 16.8485H162.627C163.103 16.8485 163.385 16.8377 163.677 16.8053C163.655 16.9784 163.634 17.0325 163.623 17.1732C164.088 18.4826 164.467 19.1535 165.246 20.0733V16.3291C165.246 15.7989 165.225 15.4093 165.149 14.944H166.177C166.112 15.4093 166.08 15.7881 166.08 16.3291V20.8741C167.129 21.8047 168.103 22.4215 169.38 22.9626C169.186 23.179 168.98 23.4712 168.818 23.8066C167.616 23.2115 166.935 22.7353 166.069 21.9454V25.3C166.069 26.025 166.09 26.4146 166.166 26.9232H165.138C165.203 26.4038 165.235 25.9925 165.235 25.3V21.1879C164.305 20.149 163.85 19.4673 163.396 18.3743C163.071 20.1058 162.552 21.5775 161.805 22.876C160.939 24.3694 159.77 25.6354 158.071 26.8907C157.887 26.5877 157.703 26.3821 157.422 26.1549C159.218 24.9321 160.365 23.6984 161.275 22.0428C160.636 21.2961 160.171 20.8741 159.337 20.2897L159.835 19.6621H159.857Z" fill="#64372C"/>
<path d="M172.779 16.5566C172.086 16.7081 171.761 16.7513 170.993 16.8812C170.874 16.5566 170.809 16.4375 170.603 16.1453C172.292 15.9614 173.32 15.7341 174.402 15.2796C174.673 15.1714 174.867 15.0524 175.019 14.9658L175.538 15.6692C174.694 16.0371 174.337 16.1778 173.59 16.3726V18.3962H174.521C174.943 18.3962 175.192 18.3854 175.452 18.3312V19.2294C175.17 19.1753 174.889 19.1645 174.51 19.1645H173.623C174.045 20.1276 174.564 20.7444 175.528 21.4911C175.311 21.7291 175.225 21.859 175.03 22.2053C174.229 21.3937 173.937 20.9933 173.525 20.0951C173.536 20.2791 173.547 20.9608 173.59 22.1512V25.4841C173.59 26.1659 173.612 26.5554 173.666 27.0316H172.692C172.746 26.5663 172.768 26.1118 172.768 25.4841V22.4109C172.768 21.9023 172.79 21.1448 172.833 20.2791C172.389 21.859 171.794 23.0061 170.809 24.1964C170.636 23.8501 170.538 23.7203 170.29 23.4497C171.328 22.3135 172.248 20.647 172.649 19.1645H171.783C171.307 19.1645 170.961 19.1861 170.593 19.2402V18.3204C170.95 18.3745 171.274 18.3962 171.794 18.3962H172.768V16.5566H172.779ZM176.469 24.3371C175.971 24.4561 175.538 24.586 175.214 24.6942L175.095 23.7527C175.398 23.7419 175.831 23.677 176.361 23.5363L180.03 22.6598V16.3726C180.03 15.6692 180.008 15.3121 179.954 14.9766H180.971C180.917 15.377 180.895 15.745 180.895 16.3618V22.465L181.112 22.4109C181.729 22.2702 182.053 22.1728 182.367 22.043L182.475 22.9736C182.118 23.0169 181.685 23.0926 181.209 23.2117L180.906 23.2874V25.5491C180.906 26.1983 180.928 26.642 180.982 26.9991H179.965C180.03 26.642 180.04 26.2957 180.04 25.5382V23.4822L176.48 24.3371H176.469ZM176.372 19.2511C177.541 20.0627 178.038 20.4739 178.828 21.3179L178.298 21.9997C177.476 21.069 176.978 20.6254 175.831 19.8679L176.372 19.2511ZM176.794 15.9181C177.887 16.6648 178.536 17.2383 179.272 18.0499L178.742 18.7425C177.898 17.7685 177.292 17.2275 176.253 16.5566L176.794 15.9181Z" fill="#64372C"/>
<path d="M190.765 20.9181C190.765 21.5133 190.267 22.0111 189.672 22.0111C189.077 22.0111 188.579 21.5133 188.579 20.9181C188.579 20.323 189.077 19.8252 189.672 19.8252C190.267 19.8252 190.765 20.323 190.765 20.9181Z" fill="#64372C"/>
<path d="M203.633 23.1799C204.109 23.9482 204.802 24.5759 205.722 25.0845C206.631 25.5931 207.637 25.8961 208.871 26.0476C208.655 26.383 208.536 26.6319 208.46 26.9565C206.891 26.6103 205.83 26.1882 204.845 25.5173C203.99 24.933 203.341 24.2079 202.886 23.3855C202.497 24.2945 201.804 25.0953 200.873 25.6904C199.986 26.264 199.142 26.567 197.573 26.9349C197.475 26.6103 197.378 26.4047 197.161 26.08C198.698 25.8419 199.694 25.4957 200.603 24.8789C201.317 24.3811 201.761 23.8941 202.086 23.1907H198.817C198.287 23.1907 197.843 23.2124 197.454 23.2665V22.3791C197.843 22.4332 198.222 22.4549 198.785 22.4549H202.313C202.367 22.1519 202.389 21.9463 202.389 21.7082C202.389 21.5892 202.378 21.5351 202.367 21.3944H203.33C203.308 21.5351 203.308 21.5675 203.287 21.7299C203.265 22.0004 203.233 22.1302 203.168 22.4657H207.248C207.821 22.4657 208.222 22.4441 208.579 22.39V23.2773C208.179 23.2232 207.767 23.2015 207.205 23.2015H203.633V23.1799ZM201.036 16.4815C200.689 15.9404 200.441 15.605 200.062 15.2154L200.809 14.8691C201.328 15.5076 201.631 15.9296 201.945 16.4815H203.947C204.347 16.027 204.694 15.5076 204.975 14.9232L205.798 15.2262C205.495 15.6916 205.235 16.0378 204.856 16.4815H206.858C207.432 16.4815 207.821 16.4599 208.189 16.4058V17.2823C207.832 17.2282 207.399 17.2065 206.858 17.2065H203.352V18.4077H206.425C206.956 18.4077 207.215 18.3969 207.572 18.3428V19.1977C207.237 19.1436 206.945 19.1327 206.425 19.1327H203.352V20.4205H207.421C207.995 20.4205 208.384 20.3988 208.752 20.3447V21.2213C208.384 21.1671 207.962 21.1563 207.421 21.1563H198.612C198.081 21.1563 197.648 21.178 197.28 21.2321V20.3339C197.638 20.388 198.038 20.4097 198.612 20.4097H202.529V19.1219H199.596C199.077 19.1219 198.785 19.1327 198.449 19.1868V18.332C198.796 18.3861 199.066 18.3969 199.596 18.3969H202.529V17.1957H199.174C198.612 17.1957 198.233 17.2174 197.843 17.2715V16.3949C198.244 16.4491 198.601 16.4707 199.174 16.4707H201.057L201.036 16.4815Z" fill="#64372C"/>
<path d="M212.735 22.8115C212.67 22.8548 212.579 22.9161 212.464 22.9954C212.139 23.2227 211.825 23.4067 210.916 23.8936C210.754 23.5581 210.624 23.3634 210.408 23.1469C211.663 22.6275 212.615 22.0648 213.644 21.264C214.726 20.4091 215.364 19.7274 215.949 18.8076H216.804C217.431 19.7707 218.178 20.5282 219.347 21.4047C220.289 22.1081 221.068 22.5518 222.388 23.0928C222.172 23.3417 222.042 23.5581 221.89 23.9044C221.046 23.4608 220.57 23.1794 219.985 22.8007V25.809C219.985 26.231 220.018 26.6206 220.061 26.9993H219.152V26.3284H213.557V26.9993H212.637C212.691 26.6098 212.713 26.2094 212.713 25.7982V22.8007L212.735 22.8115ZM215.776 15.6261C215.776 15.334 215.754 15.0959 215.678 14.8037H216.717C216.652 15.1067 216.641 15.3231 216.641 15.6261V16.0373H220.602C221.122 16.0373 221.511 16.0265 221.934 15.9832C221.89 16.2646 221.879 16.5243 221.879 16.8922V17.7471C221.879 18.1367 221.89 18.3856 221.934 18.6669H221.068V16.8165H211.717V18.6669H210.841C210.884 18.3639 210.895 18.1367 210.895 17.7471V16.8922C210.895 16.5351 210.884 16.2646 210.841 15.9832C211.252 16.0265 211.652 16.0373 212.183 16.0373H215.776V15.6261ZM215.007 17.8229C214.369 18.6128 214.022 18.9807 213.384 19.511C212.81 20.0088 212.442 20.2685 211.717 20.6689C211.522 20.3767 211.403 20.2577 211.079 19.9979C211.75 19.7058 212.107 19.4893 212.648 19.0781C213.286 18.5803 213.644 18.2124 214.282 17.4116L214.996 17.812L215.007 17.8229ZM219.206 22.2488C217.875 21.2532 217.323 20.7121 216.425 19.5218C215.83 20.2901 215.462 20.6797 214.747 21.3181C214.282 21.7293 214.239 21.7618 213.546 22.2488H219.206ZM213.579 25.5709H219.174V23.0279H213.579V25.5709ZM218.308 17.4008C219.423 18.6669 220.148 19.1972 221.75 19.9222C221.511 20.1927 221.436 20.3226 221.241 20.658C219.585 19.7923 218.925 19.2837 217.626 17.877L218.308 17.4116V17.4008Z" fill="#64372C"/>
<path d="M232.053 19.9657C232.81 19.9657 233.07 19.9548 233.384 19.9007L233.892 20.4634C233.827 20.5392 233.795 20.5825 233.719 20.7448C233.005 22.065 232.161 23.1147 231.003 24.1427C232.172 24.9543 233.546 25.5495 235.462 26.0581C235.234 26.3611 235.104 26.5775 234.942 26.9238C233.048 26.3394 231.652 25.6577 230.343 24.6729C229.066 25.6577 227.756 26.3286 225.916 26.9562C225.765 26.6641 225.646 26.4801 225.375 26.1987C227.215 25.636 228.503 25.03 229.693 24.1427C228.579 23.1147 227.94 22.2598 227.172 20.734H225.927C225.765 23.5367 225.353 25.095 224.325 26.8372C224.076 26.5883 223.882 26.4368 223.579 26.2745C224.737 24.5214 225.137 22.4546 225.137 18.1693C225.137 17.5742 225.115 17.1521 225.04 16.7301C225.408 16.7734 225.808 16.7842 226.501 16.7842H229.434V16.1025C229.434 15.5181 229.412 15.2476 229.336 14.9121H230.321C230.278 15.2476 230.267 15.5397 230.267 16.1133V16.7842H233.275C234.293 16.7842 234.477 16.7734 234.823 16.7193L235.278 17.1846C235.191 17.3072 235.032 17.5778 234.801 17.9962C234.444 18.6346 234.163 19.0459 233.762 19.5112C233.405 19.3272 233.243 19.2623 232.962 19.1757C233.492 18.613 233.752 18.2667 234.13 17.5633H230.267V19.9657H232.031H232.053ZM229.455 17.5633H226.003V18.6671C226.003 19.1216 225.992 19.4138 225.981 19.9548H229.455V17.5525V17.5633ZM228.07 20.7232C228.773 22.0325 229.379 22.8008 230.332 23.6233C231.349 22.7467 231.825 22.1516 232.702 20.7232H228.059H228.07Z" fill="#64372C"/>
<path d="M238.892 17.1736V18.3099C238.892 23.0929 238.6 24.8135 237.431 26.902C237.377 26.8371 237.334 26.7938 237.312 26.7721C237.085 26.5016 237.063 26.48 236.782 26.2527C237.193 25.5277 237.42 25.0407 237.593 24.4131C237.94 23.2119 238.091 21.2965 238.091 18.1584C238.091 17.3684 238.08 16.9139 238.037 16.4919C238.513 16.5352 239.011 16.5568 239.596 16.5568H242.344V15.6478C242.344 15.2799 242.323 14.9985 242.269 14.6631H243.243C243.199 14.8903 243.178 15.0527 243.167 15.3448H246.035C246.608 15.3448 246.901 15.334 247.323 15.2691V15.9833C246.955 15.9292 246.652 15.9184 246.035 15.9184H243.167V16.5568H247.247C247.842 16.5568 248.156 16.546 248.405 16.5027L248.903 17.0005C248.74 17.1303 248.719 17.1628 248.578 17.2927C248.351 17.5199 247.875 17.8878 247.507 18.1043C247.269 17.9311 247.214 17.8878 246.933 17.758C247.377 17.5307 247.528 17.4225 247.842 17.1736H242.712V17.7363L245.526 17.6389C246.089 17.6281 246.262 17.5957 246.554 17.5632L246.587 18.18C246.36 18.1692 246.284 18.1692 245.97 18.1692H245.526L242.712 18.2774V18.3964C242.712 18.5696 242.788 18.6345 243.048 18.667C243.459 18.7103 243.946 18.7211 245.018 18.7211C246.901 18.7211 247.55 18.667 247.734 18.4938C247.864 18.3856 247.95 18.1584 248.005 17.7904C248.318 17.9636 248.448 18.0069 248.762 18.061C248.481 19.2297 248.394 19.2621 245.018 19.2621C242.215 19.2621 241.966 19.208 241.966 18.5696V18.299L240.515 18.3532C240.039 18.364 239.758 18.3964 239.455 18.4289V17.8013C239.682 17.8229 239.79 17.8229 240.093 17.8229H240.505L241.966 17.7688V17.1845H238.914L238.892 17.1736ZM240.927 22.357C240.505 22.357 240.104 22.3679 239.725 22.4003C239.747 22.0973 239.769 21.816 239.769 21.4372V20.5391C239.769 20.1495 239.769 20.0305 239.725 19.6301C240.039 19.6517 240.375 19.6734 240.992 19.6734H246.738C247.355 19.6734 247.68 19.6625 248.005 19.6301C247.983 19.9331 247.961 20.1387 247.961 20.5391V21.448C247.961 21.816 247.972 22.119 248.005 22.3895C247.615 22.3679 247.258 22.3462 246.836 22.3462H240.938L240.927 22.357ZM241.111 26.0796C241.111 26.5341 241.121 26.8154 241.165 27.0968H240.277C240.331 26.7938 240.342 26.5341 240.342 26.0687V23.8179C240.342 23.4067 240.331 23.1795 240.288 22.8548C240.559 22.8765 240.764 22.8981 241.154 22.8981H246.511C246.966 22.8981 247.193 22.8873 247.496 22.8548C247.453 23.147 247.442 23.3851 247.442 23.7854V26.1986C247.442 26.7938 247.204 26.9453 246.176 26.9453C245.808 26.9453 245.505 26.9345 245.007 26.8912C244.985 26.6747 244.931 26.5016 244.834 26.2419C245.321 26.3068 245.797 26.3501 246.154 26.3501C246.598 26.3501 246.673 26.3068 246.673 26.112V25.6359H241.122V26.0904L241.111 26.0796ZM240.494 20.7663H243.427V20.2252H240.494V20.7663ZM240.494 21.8376H243.427V21.2641H240.494V21.8376ZM246.663 24.0343V23.4716H241.111V24.0343H246.663ZM246.663 25.1165V24.5538H241.111V25.1165H246.663ZM244.141 20.7771H247.214V20.2361H244.141V20.7771ZM244.141 21.8484H247.214V21.2749H244.141V21.8484Z" fill="#64372C"/>
<path d="M252.788 16.5566C252.095 16.7081 251.771 16.7513 251.002 16.8812C250.883 16.5566 250.818 16.4375 250.613 16.1453C252.301 15.9614 253.329 15.7341 254.411 15.2796C254.682 15.1714 254.877 15.0524 255.028 14.9658L255.548 15.6692C254.704 16.0371 254.346 16.1778 253.6 16.3726V18.3962H254.53C254.953 18.3962 255.201 18.3854 255.461 18.3312V19.2294C255.18 19.1753 254.898 19.1645 254.52 19.1645H253.621C254.043 20.1276 254.563 20.7444 255.526 21.4911C255.31 21.7291 255.223 21.859 255.028 22.2053C254.227 21.3937 253.935 20.9933 253.524 20.0951C253.535 20.2791 253.546 20.9608 253.589 22.1512V25.4841C253.589 26.1659 253.611 26.5554 253.665 27.0316H252.691C252.745 26.5663 252.766 26.1118 252.766 25.4841V22.4109C252.766 21.9023 252.788 21.1448 252.831 20.2791C252.388 21.859 251.792 23.0061 250.808 24.1964C250.634 23.8501 250.537 23.7203 250.288 23.4497C251.327 22.3135 252.247 20.647 252.647 19.1645H251.782C251.305 19.1645 250.959 19.1861 250.591 19.2402V18.3204C250.948 18.3745 251.273 18.3962 251.792 18.3962H252.766V16.5566H252.788ZM256.478 24.3371C255.981 24.4561 255.548 24.586 255.223 24.6942L255.104 23.7527C255.407 23.7419 255.84 23.677 256.37 23.5363L260.039 22.6598V16.3726C260.039 15.6692 260.017 15.3121 259.963 14.9766H260.981C260.926 15.377 260.905 15.745 260.905 16.3618V22.465L261.121 22.4109C261.738 22.2702 262.063 22.1728 262.377 22.043L262.485 22.9736C262.128 23.0169 261.695 23.0926 261.219 23.2117L260.916 23.2874V25.5491C260.916 26.1983 260.937 26.642 260.991 26.9991H259.974C260.039 26.642 260.05 26.2957 260.05 25.5382V23.4822L256.489 24.3371H256.478ZM256.381 19.2511C257.55 20.0627 258.048 20.4739 258.838 21.3179L258.307 21.9997C257.485 21.069 256.987 20.6254 255.84 19.8679L256.381 19.2511ZM256.803 15.9181C257.896 16.6648 258.546 17.2383 259.281 18.0499L258.751 18.7425C257.907 17.7685 257.301 17.2275 256.262 16.5566L256.803 15.9181Z" fill="#64372C"/>
<path d="M191.014 71.3445C192.205 70.1866 193.027 69.7754 194.228 69.7754C194.824 69.7754 195.365 69.8944 195.895 70.165C196.241 70.3381 196.415 70.4463 197.15 70.9657C198.265 71.7665 198.947 72.0587 199.705 72.0587C200.073 72.0587 200.451 71.9829 200.765 71.8314C201.339 71.5934 201.707 71.2687 202.28 70.5437L202.973 71.1389C202.334 71.8855 201.977 72.1994 201.436 72.5132C200.927 72.8054 200.289 72.9677 199.683 72.9677C199.272 72.9677 198.828 72.8919 198.417 72.7513C197.854 72.5565 197.432 72.3076 196.566 71.6691C195.516 70.8792 194.975 70.6519 194.164 70.6519C193.655 70.6519 193.233 70.7601 192.789 70.9982C192.421 71.2146 192.161 71.4202 191.674 71.9288L191.003 71.3445H191.014Z" fill="#64372C"/>
<path d="M206.003 72.6219C205.484 72.6219 205.235 72.6327 204.91 72.6977V71.8212C205.213 71.8861 205.484 71.8969 206.025 71.8969H207.648V71.1935C207.648 71.0204 207.616 70.8039 207.583 70.6524H208.471C208.427 70.8148 208.417 71.0204 208.417 71.1935V71.8969H209.878C210.343 71.8969 210.613 71.8861 210.96 71.8212V72.6869C210.657 72.6327 210.386 72.6219 209.878 72.6219H208.611C209.12 73.3253 209.488 73.6716 210.494 74.31C210.278 74.5589 210.191 74.7213 210.029 75.0243C209.163 74.2884 208.882 73.9854 208.362 73.1846C208.395 73.4768 208.406 73.8664 208.417 74.3533V76.2903C208.417 76.7557 208.427 77.0803 208.481 77.4374H207.562C207.616 77.0911 207.637 76.734 207.637 76.2903V74.3966C207.637 74.072 207.648 73.7257 207.681 73.2928C207.14 74.4399 206.371 75.3164 205.159 76.2471C205.018 75.9441 204.867 75.7276 204.65 75.5004C205.321 75.0567 205.895 74.5806 206.382 74.0395C206.782 73.585 206.977 73.3037 207.356 72.6111H205.982L206.003 72.6219ZM208.373 69.6461C208.839 68.8561 209.077 68.2609 209.272 67.4602L210.072 67.7091C209.748 68.5098 209.477 69.1158 209.163 69.6461H209.953C210.462 69.6461 210.722 69.6352 211.036 69.5811V70.4793C210.7 70.4252 210.44 70.4144 209.953 70.4144H205.992C205.473 70.4144 205.192 70.4252 204.888 70.4793V69.5811C205.181 69.6352 205.462 69.6461 205.992 69.6461H208.373ZM209.737 66.5836C210.278 66.5836 210.538 66.5728 210.852 66.5187V67.4169C210.494 67.3628 210.235 67.3519 209.715 67.3519H206.306C205.743 67.3519 205.495 67.3628 205.148 67.4169V66.5187C205.451 66.5728 205.733 66.5836 206.317 66.5836H207.648V66.2265C207.648 65.8045 207.637 65.5881 207.583 65.2959H208.557C208.503 65.5773 208.492 65.7937 208.492 66.2265V66.5836H209.737ZM206.685 69.527C206.458 68.7804 206.285 68.3691 205.927 67.7415L206.631 67.471C206.999 68.1419 207.161 68.5315 207.388 69.2673L206.685 69.5162V69.527ZM215.819 69.5487C216.414 69.5487 216.739 69.527 217.042 69.4729V70.3927C216.706 70.3386 216.414 70.3278 215.873 70.3278H215.375V76.1389C215.375 76.8098 215.386 77.1344 215.451 77.4699H214.423C214.477 77.1236 214.499 76.7881 214.499 76.1389V70.3278H212.41V70.8472C212.399 72.6219 212.118 74.4183 211.652 75.6302C211.382 76.3336 211.122 76.8422 210.668 77.4591C210.386 77.1885 210.246 77.0695 209.91 76.8963C211.187 75.3272 211.587 73.4552 211.587 69.0076C211.587 67.5034 211.566 66.9299 211.523 66.5404H211.685C212.388 66.5404 213.752 66.2698 214.845 65.9235C215.408 65.7396 215.743 65.5881 216.068 65.35L216.75 66.0967C216.631 66.14 216.62 66.14 216.274 66.2806C215.17 66.7351 214.152 66.984 212.432 67.2654V69.5487H215.819Z" fill="#64372C"/>
<path d="M220.527 73.5631C220.527 72.719 220.538 72.3727 220.57 71.5936C220.051 72.3294 219.715 72.7298 219.12 73.2817C218.947 73.0004 218.828 72.8597 218.557 72.6108C219.477 71.7884 219.932 71.2473 220.527 70.3599C221.111 69.451 221.566 68.5203 221.771 67.7304L222.648 68.0226C222.551 68.174 222.496 68.3039 222.345 68.661C222.074 69.2995 221.771 69.8946 221.371 70.5547V75.7381C221.371 76.474 221.382 76.8852 221.436 77.3938H220.451C220.505 76.9177 220.527 76.5173 220.527 75.7381V73.5522V73.5631ZM224.347 66.3128C224.347 65.9449 224.325 65.6635 224.271 65.3389H225.299C225.235 65.6419 225.202 65.9232 225.202 66.3128V66.6266H229.12C229.737 66.6266 230.05 66.6158 230.462 66.5617C230.418 66.8971 230.408 67.1893 230.408 67.633V68.3688C230.408 68.78 230.418 69.0398 230.462 69.2995H229.596V67.3949H220.105V69.4185H219.239C219.282 69.148 219.293 68.8774 219.293 68.4987V67.4815C219.293 67.0919 219.282 66.8538 219.239 66.5617C219.737 66.6158 220.061 66.6266 220.581 66.6266H224.336V66.3128H224.347ZM224.131 69.3319C223.676 69.3319 223.254 69.3536 222.875 69.3969V68.542C223.265 68.5853 223.665 68.6069 224.141 68.6069H228.038C228.546 68.6069 228.979 68.5853 229.325 68.542V69.3969C228.936 69.3536 228.557 69.3319 228.07 69.3319H226.728C226.479 70.0678 226.338 70.4357 226.133 70.8469H228.254C228.882 70.8469 229.228 70.8361 229.574 70.7928C229.531 71.0958 229.52 71.4421 229.52 72.0156V75.9221C229.52 76.4632 229.542 76.9177 229.596 77.3722H228.687V76.7012H223.979V77.3397H223.07C223.113 77.0042 223.135 76.5714 223.135 75.9979V71.9831C223.146 71.5395 223.124 71.1607 223.081 70.782C223.438 70.8253 223.774 70.8361 224.38 70.8361H225.267C225.505 70.3275 225.722 69.7864 225.841 69.3211H224.12L224.131 69.3319ZM223.979 73.3466H228.687V71.5611H223.979V73.3466ZM223.979 75.987H228.687V74.05H223.979V75.987Z" fill="#64372C"/>
<path d="M238.016 72.8809C237.247 74.6448 236.457 75.4347 235.494 75.4347C234.228 75.4347 233.286 74.0496 233.286 72.1883C233.286 70.8248 233.795 69.5155 234.682 68.5091C235.754 67.3404 237.204 66.7344 238.99 66.7344C240.483 66.7344 241.793 67.1997 242.659 68.0546C243.503 68.8662 243.946 70.0241 243.946 71.301C243.946 73.3678 242.832 75.0776 240.894 75.9C240.299 76.1489 239.791 76.3112 238.871 76.5168C238.741 76.0732 238.654 75.9433 238.405 75.6187C239.379 75.4563 240.007 75.2832 240.635 74.991C242.096 74.3201 242.994 72.9025 242.994 71.2577C242.994 69.7427 242.226 68.5091 240.873 67.9139C240.375 67.6975 239.996 67.6109 239.325 67.5784C239.13 69.4289 238.622 71.4741 238.016 72.8701V72.8809ZM236.382 68.2277C235.04 69.0393 234.206 70.5435 234.206 72.1991C234.206 73.4761 234.769 74.4608 235.483 74.4608C236.046 74.4608 236.576 73.8332 237.15 72.5238C237.691 71.2685 238.189 69.299 238.362 67.5893C237.561 67.6542 236.988 67.8382 236.382 68.2169V68.2277Z" fill="#64372C"/>
<path d="M258.416 76.8848C258.015 76.8199 257.68 76.7874 257.106 76.7874H247.961V77.4151H246.998C247.052 76.9714 247.096 76.4952 247.096 75.965V67.1997C247.096 66.6587 247.085 66.2691 247.042 65.8254C247.442 65.8795 247.799 65.8904 248.438 65.8904H256.836C257.355 65.8904 257.702 65.8687 258.145 65.793V66.7344C257.745 66.6803 257.377 66.6587 256.857 66.6587H247.972V76.0083H257.117C257.658 76.0083 258.026 75.9866 258.427 75.9325V76.874L258.416 76.8848ZM253.762 71.723C254.466 73.2597 255.602 74.0388 257.983 74.6123C257.788 74.8504 257.637 75.0885 257.518 75.4239C256.154 74.9803 255.505 74.6773 254.801 74.1578C254.098 73.6384 253.578 73.0108 253.167 72.1559C252.821 73.0324 252.355 73.6492 251.652 74.1687C250.948 74.6881 250.223 75.0452 249.249 75.3915C249.098 75.0885 248.957 74.8721 248.73 74.6448C250.808 74.0496 252.009 73.1082 252.474 71.7122H250.104C249.455 71.7122 249.109 71.723 248.741 71.7772V70.9006C249.098 70.9547 249.412 70.9656 250.115 70.9656H252.637C252.734 70.3704 252.756 70.0457 252.777 69.0826H250.743C250.342 69.6778 250.115 69.9484 249.531 70.576C249.314 70.3812 249.163 70.2622 248.849 70.0998C249.78 69.2341 250.299 68.5308 250.7 67.6109C250.797 67.3837 250.851 67.2106 250.916 66.9617L251.76 67.2106C251.695 67.3404 251.594 67.5532 251.457 67.849C251.403 67.9789 251.327 68.1304 251.208 68.3576H255.927C256.598 68.3576 256.922 68.3468 257.236 68.2927V69.1584C256.847 69.1043 256.446 69.0935 255.948 69.0935H253.632C253.596 69.9375 253.553 70.5652 253.503 70.9764H256.825C257.442 70.9764 257.767 70.9547 258.134 70.9006V71.8096C257.777 71.7555 257.388 71.7339 256.803 71.7339H253.806L253.762 71.723Z" fill="#64372C"/>
<path d="M266.5 66.0855C266.5 65.6959 266.489 65.4687 266.424 65.209H267.42C267.366 65.4795 267.355 65.6851 267.355 66.0855V66.237H270.829C271.522 66.237 271.911 66.2154 272.312 66.1613V67.0161C271.9 66.962 271.576 66.9512 270.883 66.9512H262.896V69.3211C262.896 71.9074 262.68 73.8011 262.268 75.0131C261.976 75.8788 261.727 76.3766 261.056 77.318C260.818 77.0367 260.699 76.9501 260.375 76.7445C260.948 76.0411 261.349 75.3161 261.597 74.4612C261.792 73.8227 261.89 73.2925 261.998 72.1238C261.489 72.4484 261.121 72.654 260.537 72.9787C260.418 73.0436 260.364 73.0761 260.245 73.1518L259.909 72.2969C260.385 72.1887 261.294 71.7775 262.052 71.323C262.074 70.8144 262.074 70.5114 262.074 69.8621C262.074 67.027 262.074 66.7023 262.009 66.1721C262.485 66.2154 262.95 66.237 263.524 66.237H266.478V66.0855H266.5ZM260.753 67.6438C261.175 68.4662 261.381 68.964 261.738 70.0786L261.056 70.4249C260.753 69.3427 260.537 68.8017 260.093 67.9468L260.742 67.6438H260.753ZM265.461 74.8941C264.639 75.987 264.076 76.5173 263.026 77.199C262.81 76.9176 262.68 76.7878 262.452 76.6146C263.578 75.9654 264.13 75.4568 264.747 74.5045L265.472 74.8941H265.461ZM264.346 71.4745C264.022 71.7018 263.816 71.8208 263.275 72.113C263.156 71.8424 263.058 71.7126 262.853 71.4745C263.589 71.1499 264.022 70.901 264.606 70.4357C264.216 70.0461 263.881 69.7539 263.394 69.4185L263.903 68.9748C264.444 69.386 264.768 69.6565 265.115 69.992C265.58 69.5483 265.818 69.2562 266.164 68.7151H264.379C263.859 68.7151 263.513 68.7259 263.232 68.7692V67.9684C263.556 68.0117 263.827 68.0225 264.4 68.0225H266.532C266.673 67.6979 266.716 67.5789 266.825 67.2109L267.723 67.2867C267.55 67.6546 267.496 67.7628 267.366 68.0225H270.818C271.381 68.0225 271.76 68.0009 272.138 67.9468V68.7908C271.781 68.7367 271.446 68.7259 270.84 68.7259H268.632C269.108 69.4077 269.335 69.6457 269.941 70.1219C270.526 69.6565 270.84 69.3535 271.11 68.9532L271.781 69.3968C271.164 69.9595 270.883 70.1976 270.461 70.5006C271.143 70.9443 271.597 71.1499 272.571 71.4745C272.355 71.7992 272.29 71.929 272.214 72.1779C271.532 71.8857 271.197 71.7126 270.699 71.4204V73.0544C270.699 73.7578 270.699 73.931 270.742 74.2989C270.407 74.2556 270.061 74.2448 269.574 74.2448H267.853V76.4956C267.853 77.1774 267.55 77.4046 266.597 77.4046C266.132 77.4046 265.667 77.383 265.19 77.3397C265.169 77.015 265.126 76.8311 264.996 76.4956C265.515 76.6038 265.97 76.6579 266.478 76.6579C266.955 76.6579 267.041 76.6038 267.041 76.3225V74.2448H265.645C265.061 74.2448 264.703 74.2556 264.336 74.2989C264.379 73.9093 264.379 73.7686 264.379 73.0869V71.4853L264.346 71.4745ZM265.104 71.9398H269.931V70.9984H265.104V71.9398ZM265.104 73.5739H269.931V72.5783H265.104V73.5739ZM269.249 70.3383C268.632 69.808 268.394 69.5159 267.853 68.7151H266.987C266.587 69.386 266.24 69.8189 265.71 70.3383H269.26H269.249ZM269.757 74.472C270.58 75.4459 271.175 75.9221 272.29 76.5389C272.106 76.712 271.922 76.9393 271.749 77.2098C270.612 76.474 270.028 75.9545 269.141 74.9049L269.768 74.4829L269.757 74.472Z" fill="#64372C"/>
<path d="M275.807 72.8486C275.656 75.0887 275.364 76.2682 274.693 77.4152C274.444 77.069 274.325 76.9607 274.011 76.7443C274.519 75.9544 274.747 75.2402 274.887 74.039C275.071 72.6106 275.125 71.1605 275.125 67.5787C275.125 66.7238 275.104 66.1503 275.05 65.7282C275.407 65.7823 275.634 65.7932 276.24 65.7932H277.409C277.983 65.7932 278.286 65.7823 278.524 65.7282C278.48 66.0529 278.47 66.41 278.47 67.0701V76.1816C278.47 77.0257 278.199 77.2637 277.268 77.2637C276.998 77.2637 276.727 77.2529 276.392 77.2096C276.381 76.9066 276.338 76.6794 276.218 76.3547C276.705 76.463 276.976 76.4846 277.301 76.4846C277.625 76.4846 277.69 76.4089 277.69 76.095V72.827H275.807V72.8486ZM275.905 69.678C275.897 70.5581 275.879 71.3697 275.851 72.1128H277.69V69.678H275.905ZM277.69 66.5506H275.915V68.953H277.69V66.5506ZM282.982 68.0981C283.491 67.254 283.74 66.6805 284.13 65.5118L284.995 65.8256C284.498 66.9619 284.303 67.3406 283.837 68.0873H284.541C285.104 68.0873 285.504 68.0764 285.688 68.0332C285.674 68.1774 285.659 68.5273 285.645 69.0828V70.8792C285.645 71.4094 285.656 71.799 285.688 71.9721C285.58 71.9613 285.569 71.9613 285.407 71.9397C285.006 71.9288 284.671 71.918 284.443 71.918H283.816V76.1816C283.816 76.5063 283.935 76.5495 284.638 76.5495C285.212 76.5495 285.396 76.4954 285.504 76.3115C285.623 76.1167 285.71 75.5432 285.742 74.526C286.034 74.7099 286.251 74.8073 286.532 74.8831C286.316 77.1663 286.175 77.3395 284.498 77.3395C283.275 77.3395 283.004 77.1663 283.004 76.3547V71.918H281.781C281.76 73.2923 281.619 74.2229 281.327 75.0345C280.937 76.1491 280.363 76.8092 279.151 77.5343C278.967 77.2313 278.848 77.0906 278.556 76.8525C280.353 75.9652 280.926 74.7748 280.959 71.9072H280.602C280.017 71.9072 279.703 71.918 279.389 71.9613C279.4 71.7882 279.433 71.2796 279.433 70.8683V68.9638C279.433 68.4877 279.422 68.1955 279.379 68.0115C279.682 68.0548 279.974 68.0656 280.602 68.0656H282.982V68.0981ZM281.078 68.0223C280.85 67.2216 280.58 66.6264 280.136 65.8364L280.872 65.501C281.337 66.3018 281.576 66.832 281.868 67.6652L281.078 68.0223ZM280.234 71.1822H284.833V68.8339H280.234V71.1822Z" fill="#64372C"/>
<path d="M292.766 67.5682C291.532 67.7955 290.515 67.9361 288.794 68.1093C288.718 67.7738 288.621 67.579 288.426 67.2869C290.85 67.1786 293.383 66.7674 295.58 66.0857C296.499 65.8043 297.019 65.6096 297.549 65.3174L298.177 66.1073C297.874 66.2047 297.722 66.2372 297.333 66.3779C296.023 66.8324 295.017 67.1137 293.632 67.4059V69.4619L297.593 69.0399C298.35 68.9642 298.588 68.9209 298.924 68.8235L299.021 69.7433C298.902 69.7325 298.826 69.7325 298.772 69.7325C298.534 69.7325 298.058 69.7541 297.668 69.8082L293.642 70.2519V72.2647L298.328 71.8426C299.064 71.7777 299.357 71.7344 299.67 71.6478L299.746 72.6001C299.573 72.5893 299.476 72.5893 299.389 72.5893C299.108 72.5893 298.794 72.6001 298.372 72.6434L293.632 73.0871V75.7167C293.632 76.2577 293.978 76.3551 295.861 76.3551C298.112 76.3551 298.642 76.2794 298.805 75.9006C298.934 75.5976 298.989 75.0566 298.989 74.0069C299.335 74.1909 299.432 74.2233 299.833 74.3315C299.768 75.9547 299.562 76.6148 299.086 76.8529C298.675 77.0693 297.593 77.1559 295.515 77.1559C294.119 77.1559 293.437 77.0477 293.08 76.7663C292.863 76.5932 292.777 76.3227 292.777 75.8357V73.1737L289.541 73.4767C289.01 73.5308 288.404 73.6065 288.177 73.6606L288.101 72.7083C288.21 72.7192 288.274 72.7192 288.339 72.7192C288.578 72.7192 289.075 72.6975 289.476 72.6542L292.777 72.3621V70.3601L290.071 70.6523C289.324 70.728 289.043 70.7713 288.707 70.8471L288.632 69.9273C288.794 69.9381 288.87 69.9381 288.902 69.9381C289.151 69.9381 289.638 69.8948 290.006 69.8623L292.777 69.5702V67.6007L292.766 67.5682Z" fill="#64372C"/>
<path d="M303.512 67.233C302.971 67.233 302.571 67.2546 302.181 67.3087V66.4322C302.571 66.4863 302.939 66.508 303.523 66.508H307.398V66.3889C307.398 65.8695 307.387 65.5882 307.322 65.2852H308.285C308.231 65.6206 308.209 65.9344 308.209 66.3889V66.508H312.43C313.014 66.508 313.361 66.4863 313.761 66.4322V67.3087C313.361 67.2546 312.971 67.233 312.441 67.233H308.209V68.2177H311.423C311.943 68.2177 312.192 68.2069 312.56 68.1636C312.516 68.5099 312.506 68.7263 312.506 69.1267V71.6156C312.506 72.0052 312.516 72.2 312.56 72.5463C312.17 72.503 311.889 72.4921 311.413 72.4921H311.055V73.4444H312.452C313.036 73.4444 313.382 73.4228 313.783 73.3687V74.2452C313.393 74.1911 312.982 74.1694 312.462 74.1694H311.045V76.3445C311.045 77.0804 310.731 77.286 309.638 77.286C309.291 77.286 309.129 77.286 308.35 77.2427C308.307 76.9072 308.285 76.799 308.101 76.3986C308.566 76.4744 309.151 76.5177 309.692 76.5177C310.168 76.5177 310.265 76.4636 310.265 76.1822V74.1586H303.534C303.014 74.1586 302.614 74.1803 302.203 74.2344V73.3579C302.592 73.412 302.96 73.4336 303.545 73.4336H310.265V72.4813H304.54C304.064 72.4813 303.794 72.4921 303.404 72.5354C303.447 72.1891 303.458 71.9619 303.458 71.6048V69.1159C303.458 68.748 303.447 68.5207 303.404 68.1528C303.75 68.1961 304.021 68.2069 304.54 68.2069H307.43V67.2222H303.534L303.512 67.233ZM304.259 68.8995V69.9708H307.408V68.8995H304.259ZM304.259 70.6201V71.832H307.408V70.6201H304.259ZM306.629 76.7233C305.926 75.955 305.428 75.5113 304.67 74.981L305.298 74.4724C306.164 75.0676 306.662 75.4896 307.278 76.1281L306.629 76.7233ZM308.198 69.9708H311.662V68.8995H308.198V69.9708ZM308.198 71.832H311.662V70.6201H308.198V71.832Z" fill="#64372C"/>
<path d="M317.397 75.8572C317.397 76.6039 317.419 77.0151 317.473 77.3505H316.478C316.532 76.9826 316.553 76.5497 316.553 75.8464V67.2001C316.553 66.5509 316.542 66.1613 316.499 65.7393C316.856 65.7825 317.235 65.7934 317.884 65.7934H319.822C320.493 65.7934 320.806 65.7825 321.185 65.7393C321.164 66.0964 321.142 66.4751 321.142 67.0053V69.0939C321.142 69.6674 321.153 69.9596 321.185 70.3167C320.893 70.2842 320.384 70.2734 319.843 70.2734H317.408V75.8572H317.397ZM317.397 67.6654H320.374V66.4643H317.397V67.6654ZM317.397 69.6025H320.374V68.3364H317.397V69.6025ZM327.138 75.987C327.138 76.9285 326.856 77.1557 325.698 77.1557C325.276 77.1557 324.713 77.1449 324.151 77.1016C324.096 76.7445 324.042 76.5281 323.912 76.2035C324.54 76.3009 325.125 76.355 325.536 76.355C326.185 76.355 326.293 76.3009 326.293 76.0087V70.2842H323.696C323.122 70.2842 322.646 70.295 322.354 70.3275C322.376 69.9704 322.397 69.6025 322.397 69.1047V67.0162C322.397 66.5509 322.387 66.1505 322.354 65.7501C322.711 65.7934 323.058 65.8042 323.718 65.8042H325.806C326.456 65.8042 326.835 65.7934 327.202 65.7501C327.148 66.2154 327.138 66.6158 327.138 67.211V75.9979V75.987ZM323.166 67.6763H326.293V66.4751H323.166V67.6763ZM323.166 69.6133H326.293V68.3472H323.166V69.6133Z" fill="#64372C"/>
<path d="M329.692 71.3445C330.882 70.1866 331.705 69.7754 332.906 69.7754C333.501 69.7754 334.042 69.8944 334.573 70.165C334.919 70.3381 335.092 70.4463 335.828 70.9657C336.943 71.7665 337.625 72.0587 338.382 72.0587C338.75 72.0587 339.129 71.9829 339.443 71.8314C340.016 71.5934 340.384 71.2687 340.958 70.5437L341.65 71.1389C341.012 71.8855 340.655 72.1994 340.114 72.5132C339.605 72.8054 338.966 72.9677 338.36 72.9677C337.949 72.9677 337.505 72.8919 337.094 72.7513C336.531 72.5565 336.109 72.3076 335.244 71.6691C334.194 70.8792 333.664 70.6519 332.841 70.6519C332.332 70.6519 331.91 70.7601 331.467 70.9982C331.099 71.2146 330.839 71.4202 330.352 71.9288L329.681 71.3445H329.692Z" fill="#64372C"/>
<path d="M0 65.1651C0.984833 65.0027 2.06707 64.8945 3.27917 64.8945C5.61679 64.8945 7.38083 65.5222 8.4306 66.6476C9.45872 67.7081 10.0215 69.1473 10.0215 71.0843C10.0215 73.0213 9.51283 74.6662 8.35484 75.9431C7.22932 77.1767 5.30294 77.9017 2.83545 77.9017C1.85062 77.9017 0.919899 77.8801 0 77.7827V65.1651ZM0.898254 77.036C1.41773 77.1118 2.16447 77.1334 2.96532 77.1334C7.07781 77.1334 9.10159 74.8393 9.10159 71.1276C9.13405 67.8812 7.32672 65.652 3.22506 65.652C2.2294 65.652 1.46102 65.7494 0.898254 65.8576V77.036Z" fill="#64372C"/>
<path d="M12.1969 71.4093C12.1969 70.5003 12.1644 69.5589 12.1211 68.6715H12.9544L12.9977 70.5219H13.0518C13.4522 69.3641 14.3938 68.4551 15.6384 68.4551C15.7682 68.4551 15.8981 68.4659 16.0063 68.4984V69.3641C15.8656 69.3316 15.7358 69.3316 15.5734 69.3316C14.3289 69.3316 13.4306 70.4137 13.1817 71.8854C13.1384 72.156 13.1059 72.459 13.1059 72.7511V77.783H12.2077V71.3985L12.1969 71.4093Z" fill="#64372C"/>
<path d="M17.2183 77.1557C17.2183 76.658 17.543 76.29 17.9975 76.29C18.452 76.29 18.7659 76.658 18.7659 77.1557C18.7659 77.6102 18.4629 77.9998 17.9867 77.9998C17.5105 77.9998 17.2075 77.6102 17.2183 77.1557Z" fill="#64372C"/>
<path d="M35.8544 71.723C35.7353 69.8077 35.5838 67.4486 35.5946 66.0527H35.5405C35.0752 67.4486 34.5557 68.9311 33.8198 70.8357L31.1358 77.7938H30.5081L27.9865 70.9872C27.2506 68.9961 26.7095 67.4594 26.3307 66.0527H26.2874C26.255 67.5568 26.1684 69.786 26.0169 71.907L25.6164 77.7938H24.729L25.6597 64.9922H26.6987L29.4584 72.3723C30.0644 74.0063 30.5081 75.2941 30.8761 76.5277H30.9194C31.244 75.3482 31.6986 74.1037 32.3587 72.394L35.2158 65.003H36.2981L37.153 77.8046H36.2548L35.876 71.7339L35.8544 71.723Z" fill="#64372C"/>
<path d="M44.718 77.7938L44.5881 76.4844H44.5449C44.1011 77.1878 43.0838 77.9994 41.6336 77.9994C39.8047 77.9994 38.9497 76.7117 38.9497 75.4889C38.9497 73.3895 40.8003 72.1126 44.5124 72.1559V71.9178C44.5124 71.0196 44.3392 69.2125 42.1748 69.2341C41.3739 69.2341 40.5406 69.4506 39.8804 69.9159L39.599 69.2558C40.4324 68.6931 41.4497 68.4658 42.2722 68.4658C44.902 68.4658 45.4106 70.4461 45.4106 72.0693V75.6295C45.4106 76.3546 45.4431 77.1012 45.5405 77.7938H44.7072H44.718ZM44.5124 72.9242C42.5319 72.8701 39.9021 73.1623 39.9021 75.359C39.9021 76.6684 40.7679 77.2635 41.7202 77.2635C43.2353 77.2635 44.1011 76.3221 44.415 75.4347C44.4799 75.24 44.5124 75.0452 44.5124 74.8937V72.935V72.9242Z" fill="#64372C"/>
<path d="M49.5556 66.0312V68.6716H52.1529V69.4075H49.5556V75.3376C49.5556 76.4955 49.9127 77.2205 50.8975 77.2205C51.3629 77.2205 51.6984 77.1556 51.9365 77.0798L52.0447 77.7832C51.7525 77.9022 51.3412 77.9996 50.7893 77.9996C50.1291 77.9996 49.5772 77.794 49.2201 77.3503C48.8088 76.8742 48.6681 76.1059 48.6681 75.1753V69.4075H47.1313V68.6716H48.6681V66.3234L49.5664 66.0312H49.5556Z" fill="#64372C"/>
<path d="M53.7113 76.5927C54.1983 76.9065 54.9342 77.2203 55.7676 77.2203C57.2069 77.2203 57.8887 76.4304 57.8887 75.4781C57.8887 74.4717 57.2827 73.9415 55.9732 73.4221C54.4797 72.8377 53.6572 72.0261 53.6572 70.9223C53.6572 69.6021 54.6961 68.4551 56.4602 68.4551C57.3043 68.4551 58.0078 68.704 58.484 69.0394L58.1268 69.7753C57.813 69.548 57.2286 69.2234 56.3195 69.2234C55.1615 69.2234 54.5446 69.9701 54.5446 70.8033C54.5446 71.7556 55.194 72.1668 56.4385 72.6754C57.9104 73.2597 58.787 73.9956 58.787 75.3699C58.787 76.9282 57.5749 77.9887 55.7134 77.9887C54.8368 77.9887 54.0035 77.7398 53.3975 77.361L53.733 76.5927H53.7113Z" fill="#64372C"/>
<path d="M68.1266 75.5651C68.1266 76.3767 68.1591 77.0909 68.2024 77.7942H67.3582L67.2933 76.171H67.25C66.7847 77.0151 65.7565 77.9998 64.1224 77.9998C62.9644 77.9998 61.0164 77.4263 61.0164 73.9851V68.6719H61.9146V73.8012C61.9146 75.7923 62.5315 77.2207 64.3388 77.2207C65.6591 77.2207 66.644 76.2901 67.0228 75.3703C67.1202 75.0889 67.2067 74.7318 67.2067 74.3639V68.6827H68.105V75.5759L68.1266 75.5651Z" fill="#64372C"/>
<path d="M72.2933 66.0634C72.2933 66.4854 72.0119 66.8533 71.5357 66.8533C71.1245 66.8533 70.8323 66.4854 70.8323 66.0634C70.8323 65.6414 71.1461 65.2734 71.5682 65.2734C71.9903 65.2734 72.2933 65.6305 72.2933 66.0634ZM71.1137 77.7937V68.6713H72.0119V77.7937H71.1137Z" fill="#64372C"/>
<path d="M87.7799 77.3506C87.1306 77.6752 85.8968 77.9999 84.3276 77.9999C81.2324 77.9999 78.2671 76.0196 78.2671 71.4746C78.2671 67.6655 80.7129 64.7979 84.7605 64.7979C86.3947 64.7979 87.3362 65.155 87.7258 65.3606L87.4336 66.1289C86.7843 65.8042 85.8535 65.577 84.7713 65.577C81.319 65.577 79.2086 67.8278 79.2086 71.5071C79.2086 74.9915 81.1999 77.2315 84.6198 77.2315C85.7129 77.2315 86.7843 77.0043 87.5094 76.6364L87.7799 77.3722V77.3506Z" fill="#64372C"/>
<path d="M89.8469 64.2998H90.7452V77.794H89.8469V64.2998Z" fill="#64372C"/>
<path d="M94.9769 66.0634C94.9769 66.4854 94.6955 66.8533 94.2193 66.8533C93.8081 66.8533 93.5159 66.4854 93.5159 66.0634C93.5159 65.6414 93.8297 65.2734 94.2518 65.2734C94.6739 65.2734 94.9769 65.6305 94.9769 66.0634ZM93.7972 77.7937V68.6713H94.6955V77.7937H93.7972Z" fill="#64372C"/>
<path d="M97.6932 70.8574C97.6932 70.0242 97.6607 69.3965 97.6174 68.6715H98.4616L98.5265 70.3163H98.5698C99.0676 69.2883 100.215 68.4551 101.708 68.4551C102.574 68.4551 104.89 68.8988 104.89 72.3183V77.783H103.992V72.394C103.992 70.7276 103.353 69.2234 101.459 69.2234C100.172 69.2234 99.0893 70.1432 98.7213 71.3227C98.6564 71.5392 98.6023 71.853 98.6023 72.1343V77.7722H97.704V70.8358L97.6932 70.8574Z" fill="#64372C"/>
<path d="M108.981 66.0634C108.981 66.4854 108.7 66.8533 108.223 66.8533C107.812 66.8533 107.52 66.4854 107.52 66.0634C107.52 65.6414 107.834 65.2734 108.256 65.2734C108.678 65.2734 108.981 65.6305 108.981 66.0634ZM107.801 77.7937V68.6713H108.7V77.7937H107.801Z" fill="#64372C"/>
<path d="M117.985 77.3934C117.595 77.5882 116.643 77.9886 115.323 77.9886C112.693 77.9886 110.94 76.0732 110.94 73.3354C110.94 70.4353 112.92 68.4658 115.647 68.4658C116.773 68.4658 117.682 68.7796 118.039 69.0285L117.714 69.7752C117.271 69.5155 116.567 69.245 115.55 69.245C113.104 69.245 111.849 71.117 111.849 73.2597C111.849 75.6512 113.353 77.2094 115.453 77.2094C116.535 77.2094 117.238 76.8956 117.736 76.6792L117.985 77.3934Z" fill="#64372C"/>
<path d="M88.2344 14.4681C84.8146 14.4681 81.7627 17.2816 79.7064 21.7075H68.7218C66.6655 17.2816 63.6028 14.4681 60.1938 14.4681C56.7847 14.4681 53.722 17.2816 51.6658 21.7075H42.8672C41.3412 9.28469 35.3024 0 28.0839 0C19.7182 0 12.9326 12.4553 12.9326 27.8108C12.9326 43.1662 19.7182 55.6215 28.0839 55.6215C35.8219 55.6215 42.207 44.9625 43.1161 31.1978H49.1874C49.0576 32.4423 48.9926 33.73 48.9926 35.0394C48.9926 46.4018 54.0142 55.6215 60.2046 55.6215C66.395 55.6215 71.4165 46.4126 71.4165 35.0394C71.4165 33.73 71.3516 32.4423 71.2217 31.1978H77.2389C77.1091 32.4423 77.0441 33.73 77.0441 35.0394C77.0441 46.4018 82.0657 55.6215 88.2561 55.6215C94.4465 55.6215 99.468 46.4126 99.468 35.0394C99.468 23.6662 94.4465 14.4573 88.2561 14.4573L88.2344 14.4681Z" fill="#64372C"/>
</svg>
