<svg width="444" height="17" viewBox="0 0 444 17" fill="none" xmlns="http://www.w3.org/2000/svg">
<path d="M8.325 11.29C7.83 11.53 7.035 11.695 6.255 11.695C3.885 11.695 2.415 10.12 2.415 7.3C2.415 4.315 4.065 2.815 6.285 2.815C7.14 2.815 7.815 3.01 8.295 3.235L8.67 1.81C8.355 1.645 7.545 1.36 6.225 1.36C3.045 1.36 0.585 3.49 0.585 7.39C0.585 11.05 2.73 13.165 5.925 13.165C7.17 13.165 8.145 12.925 8.625 12.685L8.325 11.29ZM14.9903 4.555C12.8003 4.555 11.0903 6.13 11.0903 8.92C11.0903 11.59 12.7253 13.165 14.8703 13.165C16.7303 13.165 18.7403 11.89 18.7403 8.8C18.7403 6.265 17.2553 4.555 14.9903 4.555ZM16.9553 8.845C16.9553 10.495 16.1753 11.86 14.9153 11.86C13.6403 11.86 12.8753 10.495 12.8753 8.875C12.8753 7.45 13.4453 5.86 14.9303 5.86C16.3853 5.86 16.9553 7.48 16.9553 8.845ZM23.3729 5.995L23.2829 4.735H21.7529C21.7829 5.47 21.8129 6.325 21.8129 7.405V16.345H23.5529V12.025H23.5829C23.9879 12.7 24.7979 13.165 25.7879 13.165C27.5279 13.165 29.2829 11.8 29.2829 8.77C29.2829 6.205 27.8879 4.555 26.0279 4.555C24.8729 4.555 23.9729 5.065 23.4029 5.995H23.3729ZM23.5529 8.14C23.5529 6.925 24.4379 5.95 25.4729 5.95C26.8079 5.95 27.5129 7.255 27.5129 8.83C27.5129 10.54 26.7779 11.785 25.4279 11.785C24.5729 11.785 23.5529 11.155 23.5529 9.67V8.14ZM37.0575 4.735L35.7225 9.385C35.5725 9.94 35.4075 10.555 35.2875 11.035H35.2425C35.1225 10.555 34.9575 9.925 34.7925 9.385L33.2925 4.735H31.3875L34.2225 12.355C34.2975 12.52 34.3125 12.625 34.3125 12.715C34.3125 12.94 33.6675 14.62 31.8675 15.265L32.3175 16.735C32.7225 16.645 33.4875 16.36 34.2375 15.67C35.2275 14.71 35.9175 13.18 36.8925 10.465L38.8875 4.735H37.0575ZM45.6162 4.6C45.4662 4.57 45.3462 4.555 45.1812 4.555C44.2812 4.555 43.4112 5.2 43.0362 6.25H42.9762L42.9162 4.735H41.4012C41.4462 5.5 41.4612 6.295 41.4612 7.255V13H43.2012V8.62C43.2012 7.18 43.9362 6.22 45.1062 6.22C45.3012 6.22 45.4662 6.235 45.6162 6.265V4.6ZM50.209 2.455C50.209 1.87 49.804 1.435 49.204 1.435C48.604 1.435 48.184 1.87 48.184 2.455C48.184 3.01 48.589 3.46 49.189 3.46C49.819 3.46 50.209 3.01 50.209 2.455ZM50.059 4.72H48.319V13H50.059V4.72ZM58.9937 4.735L58.9187 5.845H58.8887C58.5437 5.185 57.8537 4.555 56.6237 4.555C54.8237 4.555 53.1287 6.115 53.1287 8.92C53.1287 11.23 54.4637 12.955 56.4137 12.955C57.4787 12.955 58.2887 12.445 58.7087 11.74H58.7387V12.535C58.7387 14.41 57.7787 15.16 56.4287 15.16C55.4987 15.16 54.7037 14.875 54.1937 14.575L53.8037 15.925C54.4487 16.315 55.4537 16.525 56.4137 16.525C60.3287 16.525 60.4637 13.48 60.4637 11.83V7.12C60.4637 6.01 60.4937 5.32 60.5387 4.735H58.9937ZM58.7237 9.55C58.7237 10.93 57.8237 11.62 56.9237 11.62C55.6337 11.62 54.8987 10.465 54.8987 8.845C54.8987 7.075 55.7387 5.935 56.9387 5.935C58.0037 5.935 58.7237 6.835 58.7237 7.93V9.55ZM70.8518 8.005C70.8518 5.395 69.4118 4.555 68.1668 4.555C67.2668 4.555 66.3368 5.005 65.7968 5.86H65.7668V0.969999H64.0268V13H65.7668V7.945C65.7668 6.7 66.6818 5.995 67.5368 5.995C68.7068 5.995 69.1118 6.985 69.1118 8.17V13H70.8518V8.005ZM74.7306 4.735H73.5606V6.04H74.7306V10.315C74.7306 11.395 74.9256 12.085 75.3456 12.535C75.7056 12.94 76.2906 13.165 76.9806 13.165C77.5656 13.165 78.0306 13.09 78.3306 12.97L78.2706 11.635C78.0606 11.695 77.8506 11.74 77.5056 11.74C76.7706 11.74 76.4556 11.245 76.4556 10.225V6.04H78.4206V4.735H76.4556V2.695L74.7306 3.235V4.735ZM85.6022 7.21C85.6022 10.135 87.8822 12.49 90.8072 12.49C93.7022 12.49 95.9672 10.135 95.9672 7.195C95.9672 4.315 93.7022 1.96 90.8072 1.96C88.2122 1.96 85.6022 4.015 85.6022 7.21ZM86.5172 7.255C86.5172 4.705 88.4072 2.74 90.8072 2.74C93.2672 2.74 95.0372 4.825 95.0372 7.21C95.0372 9.625 93.2672 11.725 90.7922 11.71C88.4972 11.71 86.5172 9.835 86.5172 7.255ZM92.9522 9.145C92.5472 9.385 91.9172 9.58 91.2272 9.58C89.7722 9.58 88.9172 8.575 88.9172 7.255C88.9172 5.92 89.7272 4.945 91.2422 4.945C92.0372 4.945 92.6522 5.215 92.8772 5.335L93.0872 4.6C92.8622 4.405 92.0822 4.135 91.2122 4.135C89.4722 4.135 87.9422 5.335 87.9422 7.3C87.9422 9.025 89.0822 10.39 91.0622 10.39C91.7972 10.39 92.5622 10.24 93.1622 9.85L92.9522 9.145ZM110.76 11.56H106.215V11.53L107.145 10.585C109.11 8.605 110.52 6.88 110.52 4.81C110.52 3.1 109.5 1.525 107.175 1.525C105.915 1.525 104.82 2.005 104.13 2.575L104.655 3.82C105.18 3.4 105.96 2.935 106.83 2.935C108.255 2.935 108.78 3.895 108.78 4.99C108.78 6.685 107.46 8.245 105.075 10.69L103.89 11.935V13H110.76V11.56ZM117.143 13.165C119.468 13.165 120.848 11.08 120.848 7.255C120.848 3.835 119.648 1.525 117.263 1.525C114.923 1.525 113.528 3.685 113.528 7.375C113.528 10.84 114.788 13.165 117.143 13.165ZM117.173 11.77C115.973 11.77 115.283 10.12 115.283 7.315C115.283 4.495 116.063 2.905 117.203 2.905C118.523 2.905 119.093 4.63 119.093 7.315C119.093 9.655 118.643 11.77 117.173 11.77ZM130.306 11.56H125.761V11.53L126.691 10.585C128.656 8.605 130.066 6.88 130.066 4.81C130.066 3.1 129.046 1.525 126.721 1.525C125.461 1.525 124.366 2.005 123.676 2.575L124.201 3.82C124.726 3.4 125.506 2.935 126.376 2.935C127.801 2.935 128.326 3.895 128.326 4.99C128.326 6.685 127.006 8.245 124.621 10.69L123.436 11.935V13H130.306V11.56ZM140.079 11.56H135.534V11.53L136.464 10.585C138.429 8.605 139.839 6.88 139.839 4.81C139.839 3.1 138.819 1.525 136.494 1.525C135.234 1.525 134.139 2.005 133.449 2.575L133.974 3.82C134.499 3.4 135.279 2.935 136.149 2.935C137.574 2.935 138.099 3.895 138.099 4.99C138.099 6.685 136.779 8.245 134.394 10.69L133.209 11.935V13H140.079V11.56ZM142.801 9.07H146.926V7.825H142.801V9.07ZM161.498 0.969999H159.758V5.665H159.728C159.368 5.035 158.603 4.555 157.538 4.555C155.693 4.555 154.088 6.145 154.088 8.95C154.088 11.5 155.513 13.165 157.388 13.165C158.558 13.165 159.458 12.55 159.893 11.71H159.938L160.028 13H161.558C161.528 12.43 161.498 11.545 161.498 10.795V0.969999ZM159.758 9.61C159.758 10.765 159.023 11.755 157.898 11.755C156.578 11.755 155.858 10.51 155.858 8.89C155.858 7.255 156.593 5.935 157.928 5.935C158.903 5.935 159.758 6.73 159.758 8.08V9.61ZM169.228 4.6C169.078 4.57 168.958 4.555 168.793 4.555C167.893 4.555 167.023 5.2 166.648 6.25H166.588L166.528 4.735H165.013C165.058 5.5 165.073 6.295 165.073 7.255V13H166.813V8.62C166.813 7.18 167.548 6.22 168.718 6.22C168.913 6.22 169.078 6.235 169.228 6.265V4.6ZM171.331 9.07H175.456V7.825H171.331V9.07ZM189.763 8.005C189.763 5.395 188.413 4.555 187.183 4.555C185.998 4.555 185.188 5.155 184.633 6.07H184.603C184.258 5.14 183.463 4.555 182.413 4.555C181.153 4.555 180.403 5.26 179.998 5.95H179.953L179.863 4.735H178.363C178.393 5.44 178.423 6.13 178.423 7.06V13H180.133V7.99C180.133 6.685 181.018 5.98 181.798 5.98C182.803 5.98 183.238 6.865 183.238 8.02V13H184.948V7.9C184.948 6.7 185.758 5.98 186.553 5.98C187.603 5.98 188.053 6.895 188.053 8.275V13H189.763V8.005ZM199.083 7.915C199.083 6.16 198.408 4.555 195.978 4.555C194.868 4.555 193.893 4.87 193.308 5.245L193.668 6.4C194.193 6.055 194.943 5.83 195.678 5.83C197.343 5.83 197.343 7.06 197.343 7.675C194.508 7.675 192.723 8.695 192.723 10.75C192.723 12.025 193.608 13.165 195.153 13.165C196.188 13.165 196.998 12.685 197.463 12.04H197.508L197.628 13H199.203C199.098 12.46 199.083 11.74 199.083 11.035V7.915ZM197.388 10.21C197.388 11.17 196.608 11.89 195.663 11.89C195.018 11.89 194.448 11.485 194.448 10.57C194.448 9.1 196.023 8.845 197.388 8.845V10.21ZM202.972 4.735H201.802V6.04H202.972V10.315C202.972 11.395 203.167 12.085 203.587 12.535C203.947 12.94 204.532 13.165 205.222 13.165C205.807 13.165 206.272 13.09 206.572 12.97L206.512 11.635C206.302 11.695 206.092 11.74 205.747 11.74C205.012 11.74 204.697 11.245 204.697 10.225V6.04H206.662V4.735H204.697V2.695L202.972 3.235V4.735ZM214.014 5.035C213.564 4.78 212.859 4.555 212.049 4.555C210.309 4.555 209.184 5.65 209.184 7.03C209.184 7.99 209.829 8.815 211.299 9.4C212.289 9.82 212.634 10.165 212.634 10.795C212.634 11.425 212.184 11.875 211.254 11.875C210.549 11.875 209.784 11.575 209.364 11.32L208.974 12.61C209.529 12.94 210.354 13.165 211.224 13.165C213.099 13.165 214.314 12.22 214.314 10.63C214.314 9.43 213.594 8.68 212.229 8.125C211.224 7.69 210.849 7.405 210.849 6.835C210.849 6.28 211.269 5.83 212.049 5.83C212.724 5.83 213.294 6.085 213.624 6.295L214.014 5.035ZM224.073 4.735H222.333V9.85C222.333 11.095 221.403 11.725 220.608 11.725C219.468 11.725 219.063 10.78 219.063 9.355V4.72H217.323V9.64C217.323 12.28 218.568 13.165 219.993 13.165C221.328 13.165 222.138 12.37 222.483 11.8H222.528L222.618 13H224.148C224.118 12.34 224.073 11.56 224.073 10.63V4.735ZM229.543 2.455C229.543 1.87 229.138 1.435 228.538 1.435C227.938 1.435 227.518 1.87 227.518 2.455C227.518 3.01 227.923 3.46 228.523 3.46C229.153 3.46 229.543 3.01 229.543 2.455ZM229.393 4.72H227.653V13H229.393V4.72ZM233.843 13.165C234.533 13.165 234.968 12.67 234.968 11.98C234.968 11.275 234.518 10.78 233.858 10.78C233.213 10.78 232.733 11.29 232.733 11.98C232.733 12.64 233.153 13.165 233.843 13.165ZM241.375 4.555C239.185 4.555 237.475 6.13 237.475 8.92C237.475 11.59 239.11 13.165 241.255 13.165C243.115 13.165 245.125 11.89 245.125 8.8C245.125 6.265 243.64 4.555 241.375 4.555ZM243.34 8.845C243.34 10.495 242.56 11.86 241.3 11.86C240.025 11.86 239.26 10.495 239.26 8.875C239.26 7.45 239.83 5.86 241.315 5.86C242.77 5.86 243.34 7.48 243.34 8.845ZM252.352 4.6C252.202 4.57 252.082 4.555 251.917 4.555C251.017 4.555 250.147 5.2 249.772 6.25H249.712L249.652 4.735H248.137C248.182 5.5 248.197 6.295 248.197 7.255V13H249.937V8.62C249.937 7.18 250.672 6.22 251.842 6.22C252.037 6.22 252.202 6.235 252.352 6.265V4.6ZM255.779 13.165C256.469 13.165 256.904 12.67 256.904 11.98C256.904 11.275 256.454 10.78 255.794 10.78C255.149 10.78 254.669 11.29 254.669 11.98C254.669 12.64 255.089 13.165 255.779 13.165ZM262.021 2.455C262.021 1.87 261.631 1.435 261.016 1.435C260.416 1.435 259.996 1.87 259.996 2.455C259.996 3.01 260.401 3.46 261.001 3.46C261.631 3.46 262.021 3.01 262.021 2.455ZM261.886 4.72H260.146V11.71C260.146 14.125 259.936 15.01 258.136 15.19L258.316 16.555C259.171 16.555 260.221 16.285 260.881 15.655C261.601 14.95 261.886 13.93 261.886 12.25V4.72ZM266.991 5.995L266.901 4.735H265.371C265.401 5.47 265.431 6.325 265.431 7.405V16.345H267.171V12.025H267.201C267.606 12.7 268.416 13.165 269.406 13.165C271.146 13.165 272.901 11.8 272.901 8.77C272.901 6.205 271.506 4.555 269.646 4.555C268.491 4.555 267.591 5.065 267.021 5.995H266.991ZM267.171 8.14C267.171 6.925 268.056 5.95 269.091 5.95C270.426 5.95 271.131 7.255 271.131 8.83C271.131 10.54 270.396 11.785 269.046 11.785C268.191 11.785 267.171 11.155 267.171 9.67V8.14ZM276.836 13.165C277.526 13.165 277.961 12.67 277.961 11.98C277.961 11.275 277.511 10.78 276.851 10.78C276.206 10.78 275.726 11.29 275.726 11.98C275.726 12.64 276.146 13.165 276.836 13.165ZM290.602 1.525H288.472L284.962 13H286.747L287.737 9.625H291.247L292.282 13H294.112L290.602 1.525ZM288.007 8.29L288.922 5.275C289.117 4.57 289.297 3.73 289.462 3.025H289.492C289.657 3.73 289.852 4.54 290.062 5.29L290.962 8.29H288.007ZM298.704 0.969999H296.964V13H298.704V0.969999ZM304.009 0.969999H302.269V13H304.009V0.969999ZM317.289 7.51C318.444 7.075 319.344 6.07 319.344 4.6C319.344 3.67 319.029 2.875 318.429 2.35C317.709 1.705 316.659 1.435 315.159 1.435C314.124 1.435 313.104 1.54 312.369 1.675V13H314.094V8.14H315.144C316.359 8.14 316.914 8.725 317.229 10.255C317.514 11.665 317.784 12.67 317.949 13H319.749C319.524 12.565 319.239 11.38 318.894 9.88C318.624 8.665 318.144 7.855 317.289 7.54V7.51ZM314.094 6.835V2.89C314.304 2.83 314.724 2.785 315.309 2.785C316.554 2.785 317.604 3.295 317.604 4.78C317.604 6.01 316.704 6.835 315.264 6.835H314.094ZM324.439 2.455C324.439 1.87 324.034 1.435 323.434 1.435C322.834 1.435 322.414 1.87 322.414 2.455C322.414 3.01 322.819 3.46 323.419 3.46C324.049 3.46 324.439 3.01 324.439 2.455ZM324.289 4.72H322.549V13H324.289V4.72ZM333.224 4.735L333.149 5.845H333.119C332.774 5.185 332.084 4.555 330.854 4.555C329.054 4.555 327.359 6.115 327.359 8.92C327.359 11.23 328.694 12.955 330.644 12.955C331.709 12.955 332.519 12.445 332.939 11.74H332.969V12.535C332.969 14.41 332.009 15.16 330.659 15.16C329.729 15.16 328.934 14.875 328.424 14.575L328.034 15.925C328.679 16.315 329.684 16.525 330.644 16.525C334.559 16.525 334.694 13.48 334.694 11.83V7.12C334.694 6.01 334.724 5.32 334.769 4.735H333.224ZM332.954 9.55C332.954 10.93 332.054 11.62 331.154 11.62C329.864 11.62 329.129 10.465 329.129 8.845C329.129 7.075 329.969 5.935 331.169 5.935C332.234 5.935 332.954 6.835 332.954 7.93V9.55ZM345.082 8.005C345.082 5.395 343.642 4.555 342.397 4.555C341.497 4.555 340.567 5.005 340.027 5.86H339.997V0.969999H338.257V13H339.997V7.945C339.997 6.7 340.912 5.995 341.767 5.995C342.937 5.995 343.342 6.985 343.342 8.17V13H345.082V8.005ZM348.961 4.735H347.791V6.04H348.961V10.315C348.961 11.395 349.156 12.085 349.576 12.535C349.936 12.94 350.521 13.165 351.211 13.165C351.796 13.165 352.261 13.09 352.561 12.97L352.501 11.635C352.291 11.695 352.081 11.74 351.736 11.74C351.001 11.74 350.686 11.245 350.686 10.225V6.04H352.651V4.735H350.686V2.695L348.961 3.235V4.735ZM360.003 5.035C359.553 4.78 358.848 4.555 358.038 4.555C356.298 4.555 355.173 5.65 355.173 7.03C355.173 7.99 355.818 8.815 357.288 9.4C358.278 9.82 358.623 10.165 358.623 10.795C358.623 11.425 358.173 11.875 357.243 11.875C356.538 11.875 355.773 11.575 355.353 11.32L354.963 12.61C355.518 12.94 356.343 13.165 357.213 13.165C359.088 13.165 360.303 12.22 360.303 10.63C360.303 9.43 359.583 8.68 358.218 8.125C357.213 7.69 356.838 7.405 356.838 6.835C356.838 6.28 357.258 5.83 358.038 5.83C358.713 5.83 359.283 6.085 359.613 6.295L360.003 5.035ZM373.057 7.51C374.212 7.075 375.112 6.07 375.112 4.6C375.112 3.67 374.797 2.875 374.197 2.35C373.477 1.705 372.427 1.435 370.927 1.435C369.892 1.435 368.872 1.54 368.137 1.675V13H369.862V8.14H370.912C372.127 8.14 372.682 8.725 372.997 10.255C373.282 11.665 373.552 12.67 373.717 13H375.517C375.292 12.565 375.007 11.38 374.662 9.88C374.392 8.665 373.912 7.855 373.057 7.54V7.51ZM369.862 6.835V2.89C370.072 2.83 370.492 2.785 371.077 2.785C372.322 2.785 373.372 3.295 373.372 4.78C373.372 6.01 372.472 6.835 371.032 6.835H369.862ZM384.078 11.44C383.538 11.665 382.908 11.83 381.993 11.83C380.688 11.83 379.533 11.125 379.488 9.265H384.738C384.768 9.055 384.783 8.815 384.783 8.53C384.783 6.49 383.853 4.555 381.528 4.555C379.188 4.555 377.808 6.52 377.808 8.98C377.808 11.5 379.248 13.165 381.738 13.165C382.863 13.165 383.778 12.94 384.363 12.67L384.078 11.44ZM379.503 8.02C379.593 7.06 380.133 5.8 381.408 5.8C382.743 5.8 383.148 7.03 383.133 8.02H379.503ZM392.312 5.035C391.862 4.78 391.157 4.555 390.347 4.555C388.607 4.555 387.482 5.65 387.482 7.03C387.482 7.99 388.127 8.815 389.597 9.4C390.587 9.82 390.932 10.165 390.932 10.795C390.932 11.425 390.482 11.875 389.552 11.875C388.847 11.875 388.082 11.575 387.662 11.32L387.272 12.61C387.827 12.94 388.652 13.165 389.522 13.165C391.397 13.165 392.612 12.22 392.612 10.63C392.612 9.43 391.892 8.68 390.527 8.125C389.522 7.69 389.147 7.405 389.147 6.835C389.147 6.28 389.567 5.83 390.347 5.83C391.022 5.83 391.592 6.085 391.922 6.295L392.312 5.035ZM401.412 11.44C400.872 11.665 400.242 11.83 399.327 11.83C398.022 11.83 396.867 11.125 396.822 9.265H402.072C402.102 9.055 402.117 8.815 402.117 8.53C402.117 6.49 401.187 4.555 398.862 4.555C396.522 4.555 395.142 6.52 395.142 8.98C395.142 11.5 396.582 13.165 399.072 13.165C400.197 13.165 401.112 12.94 401.697 12.67L401.412 11.44ZM396.837 8.02C396.927 7.06 397.467 5.8 398.742 5.8C400.077 5.8 400.482 7.03 400.467 8.02H396.837ZM409.301 4.6C409.151 4.57 409.031 4.555 408.866 4.555C407.966 4.555 407.096 5.2 406.721 6.25H406.661L406.601 4.735H405.086C405.131 5.5 405.146 6.295 405.146 7.255V13H406.886V8.62C406.886 7.18 407.621 6.22 408.791 6.22C408.986 6.22 409.151 6.235 409.301 6.265V4.6ZM416.804 4.735L415.469 9.145C415.259 9.865 415.064 10.54 414.914 11.23H414.869C414.719 10.54 414.539 9.85 414.314 9.13L412.964 4.735H411.089L413.984 13H415.649L418.619 4.735H416.804ZM427.024 11.44C426.484 11.665 425.854 11.83 424.939 11.83C423.634 11.83 422.479 11.125 422.434 9.265H427.684C427.714 9.055 427.729 8.815 427.729 8.53C427.729 6.49 426.799 4.555 424.474 4.555C422.134 4.555 420.754 6.52 420.754 8.98C420.754 11.5 422.194 13.165 424.684 13.165C425.809 13.165 426.724 12.94 427.309 12.67L427.024 11.44ZM422.449 8.02C422.539 7.06 423.079 5.8 424.354 5.8C425.689 5.8 426.094 7.03 426.079 8.02H422.449ZM437.659 0.969999H435.919V5.665H435.889C435.529 5.035 434.764 4.555 433.699 4.555C431.854 4.555 430.249 6.145 430.249 8.95C430.249 11.5 431.674 13.165 433.549 13.165C434.719 13.165 435.619 12.55 436.054 11.71H436.099L436.189 13H437.719C437.689 12.43 437.659 11.545 437.659 10.795V0.969999ZM435.919 9.61C435.919 10.765 435.184 11.755 434.059 11.755C432.739 11.755 432.019 10.51 432.019 8.89C432.019 7.255 432.754 5.935 434.089 5.935C435.064 5.935 435.919 6.73 435.919 8.08V9.61ZM442.105 13.165C442.795 13.165 443.23 12.67 443.23 11.98C443.23 11.275 442.78 10.78 442.12 10.78C441.475 10.78 440.995 11.29 440.995 11.98C440.995 12.64 441.415 13.165 442.105 13.165Z" fill="white"/>
</svg>
