<svg width="651" height="27" viewBox="0 0 651 27" fill="none" xmlns="http://www.w3.org/2000/svg">
<path d="M12.21 18.992C11.484 19.344 10.318 19.586 9.174 19.586C5.698 19.586 3.542 17.276 3.542 13.14C3.542 8.762 5.962 6.562 9.218 6.562C10.472 6.562 11.462 6.848 12.166 7.178L12.716 5.088C12.254 4.846 11.066 4.428 9.13 4.428C4.466 4.428 0.858 7.552 0.858 13.272C0.858 18.64 4.004 21.742 8.69 21.742C10.516 21.742 11.946 21.39 12.65 21.038L12.21 18.992ZM21.9857 9.114C18.7737 9.114 16.2657 11.424 16.2657 15.516C16.2657 19.432 18.6637 21.742 21.8097 21.742C24.5377 21.742 27.4857 19.872 27.4857 15.34C27.4857 11.622 25.3077 9.114 21.9857 9.114ZM24.8677 15.406C24.8677 17.826 23.7237 19.828 21.8757 19.828C20.0057 19.828 18.8837 17.826 18.8837 15.45C18.8837 13.36 19.7197 11.028 21.8977 11.028C24.0317 11.028 24.8677 13.404 24.8677 15.406ZM34.2803 11.226L34.1483 9.378H31.9043C31.9483 10.456 31.9923 11.71 31.9923 13.294V26.406H34.5443V20.07H34.5883C35.1823 21.06 36.3703 21.742 37.8223 21.742C40.3743 21.742 42.9483 19.74 42.9483 15.296C42.9483 11.534 40.9023 9.114 38.1743 9.114C36.4803 9.114 35.1603 9.862 34.3243 11.226H34.2803ZM34.5443 14.372C34.5443 12.59 35.8423 11.16 37.3603 11.16C39.3183 11.16 40.3523 13.074 40.3523 15.384C40.3523 17.892 39.2743 19.718 37.2943 19.718C36.0403 19.718 34.5443 18.794 34.5443 16.616V14.372ZM54.351 9.378L52.393 16.198C52.173 17.012 51.931 17.914 51.755 18.618H51.689C51.513 17.914 51.271 16.99 51.029 16.198L48.829 9.378H46.035L50.193 20.554C50.303 20.796 50.325 20.95 50.325 21.082C50.325 21.412 49.379 23.876 46.739 24.822L47.399 26.978C47.993 26.846 49.115 26.428 50.215 25.416C51.667 24.008 52.679 21.764 54.109 17.782L57.035 9.378H54.351ZM66.9037 9.18C66.6837 9.136 66.5077 9.114 66.2657 9.114C64.9457 9.114 63.6697 10.06 63.1197 11.6H63.0317L62.9437 9.378H60.7217C60.7877 10.5 60.8097 11.666 60.8097 13.074V21.5H63.3617V15.076C63.3617 12.964 64.4397 11.556 66.1557 11.556C66.4417 11.556 66.6837 11.578 66.9037 11.622V9.18ZM73.6398 6.034C73.6398 5.176 73.0458 4.538 72.1658 4.538C71.2858 4.538 70.6698 5.176 70.6698 6.034C70.6698 6.848 71.2638 7.508 72.1438 7.508C73.0678 7.508 73.6398 6.848 73.6398 6.034ZM73.4198 9.356H70.8678V21.5H73.4198V9.356ZM86.5241 9.378L86.4141 11.006H86.3701C85.8641 10.038 84.8521 9.114 83.0481 9.114C80.4081 9.114 77.9221 11.402 77.9221 15.516C77.9221 18.904 79.8801 21.434 82.7401 21.434C84.3021 21.434 85.4901 20.686 86.1061 19.652H86.1501V20.818C86.1501 23.568 84.7421 24.668 82.7621 24.668C81.3981 24.668 80.2321 24.25 79.4841 23.81L78.9121 25.79C79.8581 26.362 81.3321 26.67 82.7401 26.67C88.4821 26.67 88.6801 22.204 88.6801 19.784V12.876C88.6801 11.248 88.7241 10.236 88.7901 9.378H86.5241ZM86.1281 16.44C86.1281 18.464 84.8081 19.476 83.4881 19.476C81.5961 19.476 80.5181 17.782 80.5181 15.406C80.5181 12.81 81.7501 11.138 83.5101 11.138C85.0721 11.138 86.1281 12.458 86.1281 14.064V16.44ZM103.916 14.174C103.916 10.346 101.804 9.114 99.978 9.114C98.658 9.114 97.294 9.774 96.502 11.028H96.458V3.856H93.906V21.5H96.458V14.086C96.458 12.26 97.8 11.226 99.054 11.226C100.77 11.226 101.364 12.678 101.364 14.416V21.5H103.916V14.174ZM109.605 9.378H107.889V11.292H109.605V17.562C109.605 19.146 109.891 20.158 110.507 20.818C111.035 21.412 111.893 21.742 112.905 21.742C113.763 21.742 114.445 21.632 114.885 21.456L114.797 19.498C114.489 19.586 114.181 19.652 113.675 19.652C112.597 19.652 112.135 18.926 112.135 17.43V11.292H115.017V9.378H112.135V6.386L109.605 7.178V9.378ZM125.55 13.008C125.55 17.298 128.894 20.752 133.184 20.752C137.43 20.752 140.752 17.298 140.752 12.986C140.752 8.762 137.43 5.308 133.184 5.308C129.378 5.308 125.55 8.322 125.55 13.008ZM126.892 13.074C126.892 9.334 129.664 6.452 133.184 6.452C136.792 6.452 139.388 9.51 139.388 13.008C139.388 16.55 136.792 19.63 133.162 19.608C129.796 19.608 126.892 16.858 126.892 13.074ZM136.33 15.846C135.736 16.198 134.812 16.484 133.8 16.484C131.666 16.484 130.412 15.01 130.412 13.074C130.412 11.116 131.6 9.686 133.822 9.686C134.988 9.686 135.89 10.082 136.22 10.258L136.528 9.18C136.198 8.894 135.054 8.498 133.778 8.498C131.226 8.498 128.982 10.258 128.982 13.14C128.982 15.67 130.654 17.672 133.558 17.672C134.636 17.672 135.758 17.452 136.638 16.88L136.33 15.846ZM162.448 19.388H155.782V19.344L157.146 17.958C160.028 15.054 162.096 12.524 162.096 9.488C162.096 6.98 160.6 4.67 157.19 4.67C155.342 4.67 153.736 5.374 152.724 6.21L153.494 8.036C154.264 7.42 155.408 6.738 156.684 6.738C158.774 6.738 159.544 8.146 159.544 9.752C159.544 12.238 157.608 14.526 154.11 18.112L152.372 19.938V21.5H162.448V19.388ZM171.81 21.742C175.22 21.742 177.244 18.684 177.244 13.074C177.244 8.058 175.484 4.67 171.986 4.67C168.554 4.67 166.508 7.838 166.508 13.25C166.508 18.332 168.356 21.742 171.81 21.742ZM171.854 19.696C170.094 19.696 169.082 17.276 169.082 13.162C169.082 9.026 170.226 6.694 171.898 6.694C173.834 6.694 174.67 9.224 174.67 13.162C174.67 16.594 174.01 19.696 171.854 19.696ZM191.115 19.388H184.449V19.344L185.813 17.958C188.695 15.054 190.763 12.524 190.763 9.488C190.763 6.98 189.267 4.67 185.857 4.67C184.009 4.67 182.403 5.374 181.391 6.21L182.161 8.036C182.931 7.42 184.075 6.738 185.351 6.738C187.441 6.738 188.211 8.146 188.211 9.752C188.211 12.238 186.275 14.526 182.777 18.112L181.039 19.938V21.5H191.115V19.388ZM205.449 19.388H198.783V19.344L200.147 17.958C203.029 15.054 205.097 12.524 205.097 9.488C205.097 6.98 203.601 4.67 200.191 4.67C198.343 4.67 196.737 5.374 195.725 6.21L196.495 8.036C197.265 7.42 198.409 6.738 199.685 6.738C201.775 6.738 202.545 8.146 202.545 9.752C202.545 12.238 200.609 14.526 197.111 18.112L195.373 19.938V21.5H205.449V19.388ZM209.442 15.736H215.492V13.91H209.442V15.736ZM236.863 3.856H234.311V10.742H234.267C233.739 9.818 232.617 9.114 231.055 9.114C228.349 9.114 225.995 11.446 225.995 15.56C225.995 19.3 228.085 21.742 230.835 21.742C232.551 21.742 233.871 20.84 234.509 19.608H234.575L234.707 21.5H236.951C236.907 20.664 236.863 19.366 236.863 18.266V3.856ZM234.311 16.528C234.311 18.222 233.233 19.674 231.583 19.674C229.647 19.674 228.591 17.848 228.591 15.472C228.591 13.074 229.669 11.138 231.627 11.138C233.057 11.138 234.311 12.304 234.311 14.284V16.528ZM248.202 9.18C247.982 9.136 247.806 9.114 247.564 9.114C246.244 9.114 244.968 10.06 244.418 11.6H244.33L244.242 9.378H242.02C242.086 10.5 242.108 11.666 242.108 13.074V21.5H244.66V15.076C244.66 12.964 245.738 11.556 247.454 11.556C247.74 11.556 247.982 11.578 248.202 11.622V9.18ZM251.286 15.736H257.336V13.91H251.286V15.736ZM278.319 14.174C278.319 10.346 276.339 9.114 274.535 9.114C272.797 9.114 271.609 9.994 270.795 11.336H270.751C270.245 9.972 269.079 9.114 267.539 9.114C265.691 9.114 264.591 10.148 263.997 11.16H263.931L263.799 9.378H261.599C261.643 10.412 261.687 11.424 261.687 12.788V21.5H264.195V14.152C264.195 12.238 265.493 11.204 266.637 11.204C268.111 11.204 268.749 12.502 268.749 14.196V21.5H271.257V14.02C271.257 12.26 272.445 11.204 273.611 11.204C275.151 11.204 275.811 12.546 275.811 14.57V21.5H278.319V14.174ZM291.989 14.042C291.989 11.468 290.999 9.114 287.435 9.114C285.807 9.114 284.377 9.576 283.519 10.126L284.047 11.82C284.817 11.314 285.917 10.984 286.995 10.984C289.437 10.984 289.437 12.788 289.437 13.69C285.279 13.69 282.661 15.186 282.661 18.2C282.661 20.07 283.959 21.742 286.225 21.742C287.743 21.742 288.931 21.038 289.613 20.092H289.679L289.855 21.5H292.165C292.011 20.708 291.989 19.652 291.989 18.618V14.042ZM289.503 17.408C289.503 18.816 288.359 19.872 286.973 19.872C286.027 19.872 285.191 19.278 285.191 17.936C285.191 15.78 287.501 15.406 289.503 15.406V17.408ZM297.692 9.378H295.976V11.292H297.692V17.562C297.692 19.146 297.978 20.158 298.594 20.818C299.122 21.412 299.98 21.742 300.992 21.742C301.85 21.742 302.532 21.632 302.972 21.456L302.884 19.498C302.576 19.586 302.268 19.652 301.762 19.652C300.684 19.652 300.222 18.926 300.222 17.43V11.292H303.104V9.378H300.222V6.386L297.692 7.178V9.378ZM313.887 9.818C313.227 9.444 312.193 9.114 311.005 9.114C308.453 9.114 306.803 10.72 306.803 12.744C306.803 14.152 307.749 15.362 309.905 16.22C311.357 16.836 311.863 17.342 311.863 18.266C311.863 19.19 311.203 19.85 309.839 19.85C308.805 19.85 307.683 19.41 307.067 19.036L306.495 20.928C307.309 21.412 308.519 21.742 309.795 21.742C312.545 21.742 314.327 20.356 314.327 18.024C314.327 16.264 313.271 15.164 311.269 14.35C309.795 13.712 309.245 13.294 309.245 12.458C309.245 11.644 309.861 10.984 311.005 10.984C311.995 10.984 312.831 11.358 313.315 11.666L313.887 9.818ZM328.641 9.378H326.089V16.88C326.089 18.706 324.725 19.63 323.559 19.63C321.887 19.63 321.293 18.244 321.293 16.154V9.356H318.741V16.572C318.741 20.444 320.567 21.742 322.657 21.742C324.615 21.742 325.803 20.576 326.309 19.74H326.375L326.507 21.5H328.751C328.707 20.532 328.641 19.388 328.641 18.024V9.378ZM336.664 6.034C336.664 5.176 336.07 4.538 335.19 4.538C334.31 4.538 333.694 5.176 333.694 6.034C333.694 6.848 334.288 7.508 335.168 7.508C336.092 7.508 336.664 6.848 336.664 6.034ZM336.444 9.356H333.892V21.5H336.444V9.356ZM342.97 21.742C343.982 21.742 344.62 21.016 344.62 20.004C344.62 18.97 343.96 18.244 342.992 18.244C342.046 18.244 341.342 18.992 341.342 20.004C341.342 20.972 341.958 21.742 342.97 21.742ZM354.016 9.114C350.804 9.114 348.296 11.424 348.296 15.516C348.296 19.432 350.694 21.742 353.84 21.742C356.568 21.742 359.516 19.872 359.516 15.34C359.516 11.622 357.338 9.114 354.016 9.114ZM356.898 15.406C356.898 17.826 355.754 19.828 353.906 19.828C352.036 19.828 350.914 17.826 350.914 15.45C350.914 13.36 351.75 11.028 353.928 11.028C356.062 11.028 356.898 13.404 356.898 15.406ZM370.117 9.18C369.897 9.136 369.721 9.114 369.479 9.114C368.159 9.114 366.883 10.06 366.333 11.6H366.245L366.157 9.378H363.935C364.001 10.5 364.023 11.666 364.023 13.074V21.5H366.575V15.076C366.575 12.964 367.653 11.556 369.369 11.556C369.655 11.556 369.897 11.578 370.117 11.622V9.18ZM375.142 21.742C376.154 21.742 376.792 21.016 376.792 20.004C376.792 18.97 376.132 18.244 375.164 18.244C374.218 18.244 373.514 18.992 373.514 20.004C373.514 20.972 374.13 21.742 375.142 21.742ZM384.297 6.034C384.297 5.176 383.725 4.538 382.823 4.538C381.943 4.538 381.327 5.176 381.327 6.034C381.327 6.848 381.921 7.508 382.801 7.508C383.725 7.508 384.297 6.848 384.297 6.034ZM384.099 9.356H381.547V19.608C381.547 23.15 381.239 24.448 378.599 24.712L378.863 26.714C380.117 26.714 381.657 26.318 382.625 25.394C383.681 24.36 384.099 22.864 384.099 20.4V9.356ZM391.587 11.226L391.455 9.378H389.211C389.255 10.456 389.299 11.71 389.299 13.294V26.406H391.851V20.07H391.895C392.489 21.06 393.677 21.742 395.129 21.742C397.681 21.742 400.255 19.74 400.255 15.296C400.255 11.534 398.209 9.114 395.481 9.114C393.787 9.114 392.467 9.862 391.631 11.226H391.587ZM391.851 14.372C391.851 12.59 393.149 11.16 394.667 11.16C396.625 11.16 397.659 13.074 397.659 15.384C397.659 17.892 396.581 19.718 394.601 19.718C393.347 19.718 391.851 18.794 391.851 16.616V14.372ZM406.026 21.742C407.038 21.742 407.676 21.016 407.676 20.004C407.676 18.97 407.016 18.244 406.048 18.244C405.102 18.244 404.398 18.992 404.398 20.004C404.398 20.972 405.014 21.742 406.026 21.742ZM426.216 4.67H423.092L417.944 21.5H420.562L422.014 16.55H427.162L428.68 21.5H431.364L426.216 4.67ZM422.41 14.592L423.752 10.17C424.038 9.136 424.302 7.904 424.544 6.87H424.588C424.83 7.904 425.116 9.092 425.424 10.192L426.744 14.592H422.41ZM438.099 3.856H435.547V21.5H438.099V3.856ZM445.88 3.856H443.328V21.5H445.88V3.856ZM465.357 13.448C467.051 12.81 468.371 11.336 468.371 9.18C468.371 7.816 467.909 6.65 467.029 5.88C465.973 4.934 464.433 4.538 462.233 4.538C460.715 4.538 459.219 4.692 458.141 4.89V21.5H460.671V14.372H462.211C463.993 14.372 464.807 15.23 465.269 17.474C465.687 19.542 466.083 21.016 466.325 21.5H468.965C468.635 20.862 468.217 19.124 467.711 16.924C467.315 15.142 466.611 13.954 465.357 13.492V13.448ZM460.671 12.458V6.672C460.979 6.584 461.595 6.518 462.453 6.518C464.279 6.518 465.819 7.266 465.819 9.444C465.819 11.248 464.499 12.458 462.387 12.458H460.671ZM475.845 6.034C475.845 5.176 475.251 4.538 474.371 4.538C473.491 4.538 472.875 5.176 472.875 6.034C472.875 6.848 473.469 7.508 474.349 7.508C475.273 7.508 475.845 6.848 475.845 6.034ZM475.625 9.356H473.073V21.5H475.625V9.356ZM488.729 9.378L488.619 11.006H488.575C488.069 10.038 487.057 9.114 485.253 9.114C482.613 9.114 480.127 11.402 480.127 15.516C480.127 18.904 482.085 21.434 484.945 21.434C486.507 21.434 487.695 20.686 488.311 19.652H488.355V20.818C488.355 23.568 486.947 24.668 484.967 24.668C483.603 24.668 482.437 24.25 481.689 23.81L481.117 25.79C482.063 26.362 483.537 26.67 484.945 26.67C490.687 26.67 490.885 22.204 490.885 19.784V12.876C490.885 11.248 490.929 10.236 490.995 9.378H488.729ZM488.333 16.44C488.333 18.464 487.013 19.476 485.693 19.476C483.801 19.476 482.723 17.782 482.723 15.406C482.723 12.81 483.955 11.138 485.715 11.138C487.277 11.138 488.333 12.458 488.333 14.064V16.44ZM506.121 14.174C506.121 10.346 504.009 9.114 502.183 9.114C500.863 9.114 499.499 9.774 498.707 11.028H498.663V3.856H496.111V21.5H498.663V14.086C498.663 12.26 500.005 11.226 501.259 11.226C502.975 11.226 503.569 12.678 503.569 14.416V21.5H506.121V14.174ZM511.81 9.378H510.094V11.292H511.81V17.562C511.81 19.146 512.096 20.158 512.712 20.818C513.24 21.412 514.098 21.742 515.11 21.742C515.968 21.742 516.65 21.632 517.09 21.456L517.002 19.498C516.694 19.586 516.386 19.652 515.88 19.652C514.802 19.652 514.34 18.926 514.34 17.43V11.292H517.222V9.378H514.34V6.386L511.81 7.178V9.378ZM528.005 9.818C527.345 9.444 526.311 9.114 525.123 9.114C522.571 9.114 520.921 10.72 520.921 12.744C520.921 14.152 521.867 15.362 524.023 16.22C525.475 16.836 525.981 17.342 525.981 18.266C525.981 19.19 525.321 19.85 523.957 19.85C522.923 19.85 521.801 19.41 521.185 19.036L520.613 20.928C521.427 21.412 522.637 21.742 523.913 21.742C526.663 21.742 528.445 20.356 528.445 18.024C528.445 16.264 527.389 15.164 525.387 14.35C523.913 13.712 523.363 13.294 523.363 12.458C523.363 11.644 523.979 10.984 525.123 10.984C526.113 10.984 526.949 11.358 527.433 11.666L528.005 9.818ZM547.15 13.448C548.844 12.81 550.164 11.336 550.164 9.18C550.164 7.816 549.702 6.65 548.822 5.88C547.766 4.934 546.226 4.538 544.026 4.538C542.508 4.538 541.012 4.692 539.934 4.89V21.5H542.464V14.372H544.004C545.786 14.372 546.6 15.23 547.062 17.474C547.48 19.542 547.876 21.016 548.118 21.5H550.758C550.428 20.862 550.01 19.124 549.504 16.924C549.108 15.142 548.404 13.954 547.15 13.492V13.448ZM542.464 12.458V6.672C542.772 6.584 543.388 6.518 544.246 6.518C546.072 6.518 547.612 7.266 547.612 9.444C547.612 11.248 546.292 12.458 544.18 12.458H542.464ZM563.314 19.212C562.522 19.542 561.598 19.784 560.256 19.784C558.342 19.784 556.648 18.75 556.582 16.022H564.282C564.326 15.714 564.348 15.362 564.348 14.944C564.348 11.952 562.984 9.114 559.574 9.114C556.142 9.114 554.118 11.996 554.118 15.604C554.118 19.3 556.23 21.742 559.882 21.742C561.532 21.742 562.874 21.412 563.732 21.016L563.314 19.212ZM556.604 14.196C556.736 12.788 557.528 10.94 559.398 10.94C561.356 10.94 561.95 12.744 561.928 14.196H556.604ZM575.391 9.818C574.731 9.444 573.697 9.114 572.509 9.114C569.957 9.114 568.307 10.72 568.307 12.744C568.307 14.152 569.253 15.362 571.409 16.22C572.861 16.836 573.367 17.342 573.367 18.266C573.367 19.19 572.707 19.85 571.343 19.85C570.309 19.85 569.187 19.41 568.571 19.036L567.999 20.928C568.813 21.412 570.023 21.742 571.299 21.742C574.049 21.742 575.831 20.356 575.831 18.024C575.831 16.264 574.775 15.164 572.773 14.35C571.299 13.712 570.749 13.294 570.749 12.458C570.749 11.644 571.365 10.984 572.509 10.984C573.499 10.984 574.335 11.358 574.819 11.666L575.391 9.818ZM588.737 19.212C587.945 19.542 587.021 19.784 585.679 19.784C583.765 19.784 582.071 18.75 582.005 16.022H589.705C589.749 15.714 589.771 15.362 589.771 14.944C589.771 11.952 588.407 9.114 584.997 9.114C581.565 9.114 579.541 11.996 579.541 15.604C579.541 19.3 581.653 21.742 585.305 21.742C586.955 21.742 588.297 21.412 589.155 21.016L588.737 19.212ZM582.027 14.196C582.159 12.788 582.951 10.94 584.821 10.94C586.779 10.94 587.373 12.744 587.351 14.196H582.027ZM600.308 9.18C600.088 9.136 599.912 9.114 599.67 9.114C598.35 9.114 597.074 10.06 596.524 11.6H596.436L596.348 9.378H594.126C594.192 10.5 594.214 11.666 594.214 13.074V21.5H596.766V15.076C596.766 12.964 597.844 11.556 599.56 11.556C599.846 11.556 600.088 11.578 600.308 11.622V9.18ZM611.312 9.378L609.354 15.846C609.046 16.902 608.76 17.892 608.54 18.904H608.474C608.254 17.892 607.99 16.88 607.66 15.824L605.68 9.378H602.93L607.176 21.5H609.618L613.974 9.378H611.312ZM626.302 19.212C625.51 19.542 624.586 19.784 623.244 19.784C621.33 19.784 619.636 18.75 619.57 16.022H627.27C627.314 15.714 627.336 15.362 627.336 14.944C627.336 11.952 625.972 9.114 622.562 9.114C619.13 9.114 617.106 11.996 617.106 15.604C617.106 19.3 619.218 21.742 622.87 21.742C624.52 21.742 625.862 21.412 626.72 21.016L626.302 19.212ZM619.592 14.196C619.724 12.788 620.516 10.94 622.386 10.94C624.344 10.94 624.938 12.744 624.916 14.196H619.592ZM641.899 3.856H639.347V10.742H639.303C638.775 9.818 637.653 9.114 636.091 9.114C633.385 9.114 631.031 11.446 631.031 15.56C631.031 19.3 633.121 21.742 635.871 21.742C637.587 21.742 638.907 20.84 639.545 19.608H639.611L639.743 21.5H641.987C641.943 20.664 641.899 19.366 641.899 18.266V3.856ZM639.347 16.528C639.347 18.222 638.269 19.674 636.619 19.674C634.683 19.674 633.627 17.848 633.627 15.472C633.627 13.074 634.705 11.138 636.663 11.138C638.093 11.138 639.347 12.304 639.347 14.284V16.528ZM648.42 21.742C649.432 21.742 650.07 21.016 650.07 20.004C650.07 18.97 649.41 18.244 648.442 18.244C647.496 18.244 646.792 18.992 646.792 20.004C646.792 20.972 647.408 21.742 648.42 21.742Z" fill="white"/>
</svg>
